# MagicaVoxel @ Ephtracy

# material
mtllib Exit.mtl
usemtl palette

# normals
vn -1 0 0
vn 1 0 0
vn 0 0 1
vn 0 0 -1
vn 0 -1 0
vn 0 1 0

# texcoords
vt 0.841797 0.5
vt 0.958984 0.5

# verts
v -26 0 12
v -26 0 -12
v -26 1 12
v -26 1 -12
v -23 1 9
v -23 1 -9
v -23 2 9
v -23 2 -9
v -11 1 9
v -11 1 5
v -11 1 -5
v -11 1 -9
v -11 2 9
v -11 2 5
v -11 2 -5
v -11 2 -9
v -9 1 5
v -9 1 3
v -9 1 -3
v -9 1 -5
v -9 2 5
v -9 2 3
v -9 2 -3
v -9 2 -5
v -7 1 3
v -7 1 -3
v -7 2 3
v -7 2 -3
v -5 1 5
v -5 1 3
v -5 1 -3
v -5 1 -5
v -5 2 5
v -5 2 3
v -5 2 -3
v -5 2 -5
v -3 1 9
v -3 1 5
v -3 1 -5
v -3 1 -9
v -3 2 9
v -3 2 5
v -3 2 -5
v -3 2 -9
v 1 1 9
v 1 1 7
v 1 1 -7
v 1 1 -9
v 1 2 9
v 1 2 7
v 1 2 -7
v 1 2 -9
v 5 1 7
v 5 1 -7
v 5 2 7
v 5 2 -7
v 13 1 -7
v 13 1 -9
v 13 2 -7
v 13 2 -9
v 17 1 9
v 17 1 -7
v 17 2 9
v 17 2 -7
v -21 1 7
v -21 1 1
v -21 1 -1
v -21 1 -7
v -21 2 7
v -21 2 1
v -21 2 -1
v -21 2 -7
v -13 1 9
v -13 1 7
v -13 1 1
v -13 1 -1
v -13 1 -7
v -13 1 -9
v -13 2 9
v -13 2 7
v -13 2 1
v -13 2 -1
v -13 2 -7
v -13 2 -9
v -9 1 9
v -9 1 5
v -9 1 -5
v -9 1 -9
v -9 2 9
v -9 2 5
v -9 2 -5
v -9 2 -9
v -7 1 5
v -7 1 3
v -7 1 -3
v -7 1 -5
v -7 2 5
v -7 2 3
v -7 2 -3
v -7 2 -5
v -5 1 3
v -5 1 -3
v -5 2 3
v -5 2 -3
v -3 1 5
v -3 1 3
v -3 1 -3
v -3 1 -5
v -3 2 5
v -3 2 3
v -3 2 -3
v -3 2 -5
v -1 1 9
v -1 1 5
v -1 1 -5
v -1 1 -9
v -1 2 9
v -1 2 5
v -1 2 -5
v -1 2 -9
v 7 1 7
v 7 1 -7
v 7 2 7
v 7 2 -7
v 11 1 9
v 11 1 7
v 11 1 -7
v 11 1 -9
v 11 2 9
v 11 2 7
v 11 2 -7
v 11 2 -9
v 19 1 9
v 19 1 -7
v 19 2 9
v 19 2 -7
v 23 1 -7
v 23 1 -9
v 23 2 -7
v 23 2 -9
v 26 0 12
v 26 0 -12
v 26 1 12
v 26 1 -12
v -26 0 12
v -26 1 12
v 26 0 12
v 26 1 12
v -23 1 9
v -23 2 9
v -13 1 9
v -13 2 9
v -11 1 9
v -11 2 9
v -9 1 9
v -9 2 9
v -3 1 9
v -3 2 9
v -1 1 9
v -1 2 9
v 1 1 9
v 1 2 9
v 11 1 9
v 11 2 9
v 17 1 9
v 17 2 9
v 19 1 9
v 19 2 9
v -9 1 5
v -9 2 5
v -7 1 5
v -7 2 5
v -5 1 5
v -5 2 5
v -3 1 5
v -3 2 5
v -7 1 3
v -7 2 3
v -5 1 3
v -5 2 3
v -21 1 1
v -21 2 1
v -13 1 1
v -13 2 1
v -9 1 -3
v -9 2 -3
v -7 1 -3
v -7 2 -3
v -5 1 -3
v -5 2 -3
v -3 1 -3
v -3 2 -3
v -11 1 -5
v -11 2 -5
v -9 1 -5
v -9 2 -5
v -3 1 -5
v -3 2 -5
v -1 1 -5
v -1 2 -5
v -21 1 -7
v -21 2 -7
v -13 1 -7
v -13 2 -7
v 1 1 -7
v 1 2 -7
v 5 1 -7
v 5 2 -7
v 7 1 -7
v 7 2 -7
v 11 1 -7
v 11 2 -7
v 13 1 -7
v 13 2 -7
v 17 1 -7
v 17 2 -7
v 19 1 -7
v 19 2 -7
v 23 1 -7
v 23 2 -7
v -21 1 7
v -21 2 7
v -13 1 7
v -13 2 7
v 1 1 7
v 1 2 7
v 5 1 7
v 5 2 7
v 7 1 7
v 7 2 7
v 11 1 7
v 11 2 7
v -11 1 5
v -11 2 5
v -9 1 5
v -9 2 5
v -3 1 5
v -3 2 5
v -1 1 5
v -1 2 5
v -9 1 3
v -9 2 3
v -7 1 3
v -7 2 3
v -5 1 3
v -5 2 3
v -3 1 3
v -3 2 3
v -21 1 -1
v -21 2 -1
v -13 1 -1
v -13 2 -1
v -7 1 -3
v -7 2 -3
v -5 1 -3
v -5 2 -3
v -9 1 -5
v -9 2 -5
v -7 1 -5
v -7 2 -5
v -5 1 -5
v -5 2 -5
v -3 1 -5
v -3 2 -5
v -23 1 -9
v -23 2 -9
v -13 1 -9
v -13 2 -9
v -11 1 -9
v -11 2 -9
v -9 1 -9
v -9 2 -9
v -3 1 -9
v -3 2 -9
v -1 1 -9
v -1 2 -9
v 1 1 -9
v 1 2 -9
v 11 1 -9
v 11 2 -9
v 13 1 -9
v 13 2 -9
v 23 1 -9
v 23 2 -9
v -26 0 -12
v -26 1 -12
v 26 0 -12
v 26 1 -12
v -26 0 12
v 26 0 12
v -25 0 11
v 25 0 11
v -23 0 9
v -13 0 9
v -11 0 9
v -9 0 9
v -3 0 9
v -1 0 9
v 1 0 9
v 11 0 9
v 17 0 9
v 19 0 9
v -21 0 7
v -13 0 7
v 1 0 7
v 5 0 7
v 7 0 7
v 11 0 7
v -11 0 5
v -9 0 5
v -7 0 5
v -5 0 5
v -3 0 5
v -1 0 5
v -9 0 3
v -7 0 3
v -5 0 3
v -3 0 3
v -21 0 1
v -13 0 1
v -21 0 -1
v -13 0 -1
v -9 0 -3
v -7 0 -3
v -5 0 -3
v -3 0 -3
v -11 0 -5
v -9 0 -5
v -7 0 -5
v -5 0 -5
v -3 0 -5
v -1 0 -5
v -21 0 -7
v -13 0 -7
v 1 0 -7
v 5 0 -7
v 7 0 -7
v 11 0 -7
v 13 0 -7
v 17 0 -7
v 19 0 -7
v 23 0 -7
v -23 0 -9
v -13 0 -9
v -11 0 -9
v -9 0 -9
v -3 0 -9
v -1 0 -9
v 1 0 -9
v 11 0 -9
v 13 0 -9
v 23 0 -9
v -25 0 -11
v 25 0 -11
v -26 0 -12
v 26 0 -12
v -26 1 12
v 26 1 12
v -25 1 11
v 25 1 11
v -23 1 9
v -13 1 9
v -11 1 9
v -9 1 9
v -3 1 9
v -1 1 9
v 1 1 9
v 11 1 9
v 17 1 9
v 19 1 9
v -21 1 7
v -13 1 7
v 1 1 7
v 5 1 7
v 7 1 7
v 11 1 7
v -11 1 5
v -9 1 5
v -7 1 5
v -5 1 5
v -3 1 5
v -1 1 5
v -9 1 3
v -7 1 3
v -5 1 3
v -3 1 3
v -21 1 1
v -13 1 1
v -21 1 -1
v -13 1 -1
v -9 1 -3
v -7 1 -3
v -5 1 -3
v -3 1 -3
v -11 1 -5
v -9 1 -5
v -7 1 -5
v -5 1 -5
v -3 1 -5
v -1 1 -5
v -21 1 -7
v -13 1 -7
v 1 1 -7
v 5 1 -7
v 7 1 -7
v 11 1 -7
v 13 1 -7
v 17 1 -7
v 19 1 -7
v 23 1 -7
v -23 1 -9
v -13 1 -9
v -11 1 -9
v -9 1 -9
v -3 1 -9
v -1 1 -9
v 1 1 -9
v 11 1 -9
v 13 1 -9
v 23 1 -9
v -25 1 -11
v 25 1 -11
v -26 1 -12
v 26 1 -12
v -23 2 9
v -13 2 9
v -11 2 9
v -9 2 9
v -3 2 9
v -1 2 9
v 1 2 9
v 11 2 9
v 17 2 9
v 19 2 9
v -21 2 7
v -13 2 7
v 1 2 7
v 5 2 7
v 7 2 7
v 11 2 7
v -11 2 5
v -9 2 5
v -7 2 5
v -5 2 5
v -3 2 5
v -1 2 5
v -9 2 3
v -7 2 3
v -5 2 3
v -3 2 3
v -21 2 1
v -13 2 1
v -21 2 -1
v -13 2 -1
v -9 2 -3
v -7 2 -3
v -5 2 -3
v -3 2 -3
v -11 2 -5
v -9 2 -5
v -7 2 -5
v -5 2 -5
v -3 2 -5
v -1 2 -5
v -21 2 -7
v -13 2 -7
v 1 2 -7
v 5 2 -7
v 7 2 -7
v 11 2 -7
v 13 2 -7
v 17 2 -7
v 19 2 -7
v 23 2 -7
v -23 2 -9
v -13 2 -9
v -11 2 -9
v -9 2 -9
v -3 2 -9
v -1 2 -9
v 1 2 -9
v 11 2 -9
v 13 2 -9
v 23 2 -9

# faces
f 3/2/1 2/2/1 1/2/1
f 4/2/1 2/2/1 3/2/1
f 7/2/1 6/2/1 5/2/1
f 8/2/1 6/2/1 7/2/1
f 13/2/1 10/2/1 9/2/1
f 14/2/1 10/2/1 13/2/1
f 15/2/1 12/2/1 11/2/1
f 16/2/1 12/2/1 15/2/1
f 21/2/1 18/2/1 17/2/1
f 22/2/1 18/2/1 21/2/1
f 23/2/1 20/2/1 19/2/1
f 24/2/1 20/2/1 23/2/1
f 27/2/1 26/2/1 25/2/1
f 28/2/1 26/2/1 27/2/1
f 33/2/1 30/2/1 29/2/1
f 34/2/1 30/2/1 33/2/1
f 35/2/1 32/2/1 31/2/1
f 36/2/1 32/2/1 35/2/1
f 41/2/1 38/2/1 37/2/1
f 42/2/1 38/2/1 41/2/1
f 43/2/1 40/2/1 39/2/1
f 44/2/1 40/2/1 43/2/1
f 49/2/1 46/2/1 45/2/1
f 50/2/1 46/2/1 49/2/1
f 51/2/1 48/2/1 47/2/1
f 52/2/1 48/2/1 51/2/1
f 55/2/1 54/2/1 53/2/1
f 56/2/1 54/2/1 55/2/1
f 59/2/1 58/2/1 57/2/1
f 60/2/1 58/2/1 59/2/1
f 63/2/1 62/2/1 61/2/1
f 64/2/1 62/2/1 63/2/1
f 65/2/2 66/2/2 69/2/2
f 69/2/2 66/2/2 70/2/2
f 67/2/2 68/2/2 71/2/2
f 71/2/2 68/2/2 72/2/2
f 73/2/2 74/2/2 79/2/2
f 79/2/2 74/2/2 80/2/2
f 75/2/2 76/2/2 81/2/2
f 81/2/2 76/2/2 82/2/2
f 77/2/2 78/2/2 83/2/2
f 83/2/2 78/2/2 84/2/2
f 85/2/2 86/2/2 89/2/2
f 89/2/2 86/2/2 90/2/2
f 87/2/2 88/2/2 91/2/2
f 91/2/2 88/2/2 92/2/2
f 93/2/2 94/2/2 97/2/2
f 97/2/2 94/2/2 98/2/2
f 95/2/2 96/2/2 99/2/2
f 99/2/2 96/2/2 100/2/2
f 101/2/2 102/2/2 103/2/2
f 103/2/2 102/2/2 104/2/2
f 105/2/2 106/2/2 109/2/2
f 109/2/2 106/2/2 110/2/2
f 107/2/2 108/2/2 111/2/2
f 111/2/2 108/2/2 112/2/2
f 113/2/2 114/2/2 117/2/2
f 117/2/2 114/2/2 118/2/2
f 115/2/2 116/2/2 119/2/2
f 119/2/2 116/2/2 120/2/2
f 121/2/2 122/2/2 123/2/2
f 123/2/2 122/2/2 124/2/2
f 125/2/2 126/2/2 129/2/2
f 129/2/2 126/2/2 130/2/2
f 127/2/2 128/2/2 131/2/2
f 131/2/2 128/2/2 132/2/2
f 133/2/2 134/2/2 135/2/2
f 135/2/2 134/2/2 136/2/2
f 137/2/2 138/2/2 139/2/2
f 139/2/2 138/2/2 140/2/2
f 141/2/2 142/2/2 143/2/2
f 143/2/2 142/2/2 144/2/2
f 147/2/3 146/2/3 145/2/3
f 148/2/3 146/2/3 147/2/3
f 151/2/3 150/2/3 149/2/3
f 152/2/3 150/2/3 151/2/3
f 155/2/3 154/2/3 153/2/3
f 156/2/3 154/2/3 155/2/3
f 159/2/3 158/2/3 157/2/3
f 160/2/3 158/2/3 159/2/3
f 163/2/3 162/2/3 161/2/3
f 164/2/3 162/2/3 163/2/3
f 167/2/3 166/2/3 165/2/3
f 168/2/3 166/2/3 167/2/3
f 171/2/3 170/2/3 169/2/3
f 172/2/3 170/2/3 171/2/3
f 175/2/3 174/2/3 173/2/3
f 176/2/3 174/2/3 175/2/3
f 179/2/3 178/2/3 177/2/3
f 180/2/3 178/2/3 179/2/3
f 183/2/3 182/2/3 181/2/3
f 184/2/3 182/2/3 183/2/3
f 187/2/3 186/2/3 185/2/3
f 188/2/3 186/2/3 187/2/3
f 191/2/3 190/2/3 189/2/3
f 192/2/3 190/2/3 191/2/3
f 195/2/3 194/2/3 193/2/3
f 196/2/3 194/2/3 195/2/3
f 199/2/3 198/2/3 197/2/3
f 200/2/3 198/2/3 199/2/3
f 203/2/3 202/2/3 201/2/3
f 204/2/3 202/2/3 203/2/3
f 207/2/3 206/2/3 205/2/3
f 208/2/3 206/2/3 207/2/3
f 211/2/3 210/2/3 209/2/3
f 212/2/3 210/2/3 211/2/3
f 215/2/3 214/2/3 213/2/3
f 216/2/3 214/2/3 215/2/3
f 219/2/3 218/2/3 217/2/3
f 220/2/3 218/2/3 219/2/3
f 221/2/4 222/2/4 223/2/4
f 223/2/4 222/2/4 224/2/4
f 225/2/4 226/2/4 227/2/4
f 227/2/4 226/2/4 228/2/4
f 229/2/4 230/2/4 231/2/4
f 231/2/4 230/2/4 232/2/4
f 233/2/4 234/2/4 235/2/4
f 235/2/4 234/2/4 236/2/4
f 237/2/4 238/2/4 239/2/4
f 239/2/4 238/2/4 240/2/4
f 241/2/4 242/2/4 243/2/4
f 243/2/4 242/2/4 244/2/4
f 245/2/4 246/2/4 247/2/4
f 247/2/4 246/2/4 248/2/4
f 249/2/4 250/2/4 251/2/4
f 251/2/4 250/2/4 252/2/4
f 253/2/4 254/2/4 255/2/4
f 255/2/4 254/2/4 256/2/4
f 257/2/4 258/2/4 259/2/4
f 259/2/4 258/2/4 260/2/4
f 261/2/4 262/2/4 263/2/4
f 263/2/4 262/2/4 264/2/4
f 265/2/4 266/2/4 267/2/4
f 267/2/4 266/2/4 268/2/4
f 269/2/4 270/2/4 271/2/4
f 271/2/4 270/2/4 272/2/4
f 273/2/4 274/2/4 275/2/4
f 275/2/4 274/2/4 276/2/4
f 277/2/4 278/2/4 279/2/4
f 279/2/4 278/2/4 280/2/4
f 281/2/4 282/2/4 283/2/4
f 283/2/4 282/2/4 284/2/4
f 285/2/4 286/2/4 287/2/4
f 287/2/4 286/2/4 288/2/4
f 291/2/5 290/2/5 289/2/5
f 292/2/5 290/2/5 291/2/5
f 293/1/5 292/1/5 291/1/5
f 294/1/5 292/1/5 293/1/5
f 295/1/5 292/1/5 294/1/5
f 296/1/5 292/1/5 295/1/5
f 297/1/5 292/1/5 296/1/5
f 298/1/5 292/1/5 297/1/5
f 299/1/5 292/1/5 298/1/5
f 300/1/5 292/1/5 299/1/5
f 301/1/5 292/1/5 300/1/5
f 302/1/5 292/1/5 301/1/5
f 303/2/5 294/2/5 293/2/5
f 304/1/5 295/1/5 294/1/5
f 304/2/5 294/2/5 303/2/5
f 305/1/5 299/1/5 298/1/5
f 305/2/5 300/2/5 299/2/5
f 306/2/5 300/2/5 305/2/5
f 307/2/5 300/2/5 306/2/5
f 308/1/5 301/1/5 300/1/5
f 308/2/5 300/2/5 307/2/5
f 309/2/5 296/2/5 295/2/5
f 309/1/5 295/1/5 304/1/5
f 309/1/5 304/1/5 303/1/5
f 310/1/5 297/1/5 296/1/5
f 310/2/5 296/2/5 309/2/5
f 311/1/5 297/1/5 310/1/5
f 312/1/5 297/1/5 311/1/5
f 313/2/5 298/2/5 297/2/5
f 313/1/5 297/1/5 312/1/5
f 314/1/5 306/1/5 305/1/5
f 314/2/5 298/2/5 313/2/5
f 314/1/5 305/1/5 298/1/5
f 315/2/5 311/2/5 310/2/5
f 315/1/5 310/1/5 309/1/5
f 316/1/5 312/1/5 311/1/5
f 316/2/5 311/2/5 315/2/5
f 317/2/5 313/2/5 312/2/5
f 317/1/5 312/1/5 316/1/5
f 318/1/5 314/1/5 313/1/5
f 318/2/5 313/2/5 317/2/5
f 319/2/5 303/2/5 293/2/5
f 319/1/5 309/1/5 303/1/5
f 319/1/5 315/1/5 309/1/5
f 319/1/5 316/1/5 315/1/5
f 320/1/5 316/1/5 319/1/5
f 321/2/5 319/2/5 293/2/5
f 321/2/5 320/2/5 319/2/5
f 322/1/5 316/1/5 320/1/5
f 322/2/5 320/2/5 321/2/5
f 323/1/5 322/1/5 321/1/5
f 323/1/5 316/1/5 322/1/5
f 324/2/5 317/2/5 316/2/5
f 324/1/5 316/1/5 323/1/5
f 325/1/5 318/1/5 317/1/5
f 325/2/5 317/2/5 324/2/5
f 326/1/5 314/1/5 318/1/5
f 326/1/5 318/1/5 325/1/5
f 327/1/5 323/1/5 321/1/5
f 328/2/5 324/2/5 323/2/5
f 328/1/5 323/1/5 327/1/5
f 329/1/5 325/1/5 324/1/5
f 329/2/5 324/2/5 328/2/5
f 330/2/5 326/2/5 325/2/5
f 330/1/5 325/1/5 329/1/5
f 331/1/5 314/1/5 326/1/5
f 331/2/5 326/2/5 330/2/5
f 332/1/5 306/1/5 314/1/5
f 332/1/5 314/1/5 331/1/5
f 333/1/5 327/1/5 321/1/5
f 333/2/5 321/2/5 293/2/5
f 334/1/5 327/1/5 333/1/5
f 335/1/5 306/1/5 332/1/5
f 336/2/5 307/2/5 306/2/5
f 336/1/5 306/1/5 335/1/5
f 337/1/5 308/1/5 307/1/5
f 337/2/5 307/2/5 336/2/5
f 338/1/5 301/1/5 308/1/5
f 338/1/5 308/1/5 337/1/5
f 339/1/5 301/1/5 338/1/5
f 340/2/5 302/2/5 301/2/5
f 340/1/5 301/1/5 339/1/5
f 341/1/5 292/1/5 302/1/5
f 341/2/5 302/2/5 340/2/5
f 342/1/5 292/1/5 341/1/5
f 343/1/5 293/1/5 291/1/5
f 343/2/5 333/2/5 293/2/5
f 343/2/5 334/2/5 333/2/5
f 344/1/5 327/1/5 334/1/5
f 344/2/5 334/2/5 343/2/5
f 345/2/5 328/2/5 327/2/5
f 345/1/5 327/1/5 344/1/5
f 346/1/5 330/1/5 329/1/5
f 346/2/5 328/2/5 345/2/5
f 346/1/5 331/1/5 330/1/5
f 346/1/5 329/1/5 328/1/5
f 347/2/5 332/2/5 331/2/5
f 347/1/5 331/1/5 346/1/5
f 348/1/5 335/1/5 332/1/5
f 348/2/5 332/2/5 347/2/5
f 349/2/5 337/2/5 336/2/5
f 349/1/5 335/1/5 348/1/5
f 349/2/5 336/2/5 335/2/5
f 349/2/5 338/2/5 337/2/5
f 350/1/5 339/1/5 338/1/5
f 350/2/5 338/2/5 349/2/5
f 351/2/5 340/2/5 339/2/5
f 351/1/5 339/1/5 350/1/5
f 351/2/5 342/2/5 341/2/5
f 351/2/5 341/2/5 340/2/5
f 352/1/5 292/1/5 342/1/5
f 352/2/5 342/2/5 351/2/5
f 353/2/5 291/2/5 289/2/5
f 353/1/5 351/1/5 350/1/5
f 353/1/5 352/1/5 351/1/5
f 353/1/5 347/1/5 346/1/5
f 353/1/5 349/1/5 348/1/5
f 353/1/5 346/1/5 345/1/5
f 353/1/5 345/1/5 344/1/5
f 353/1/5 343/1/5 291/1/5
f 353/1/5 348/1/5 347/1/5
f 353/1/5 344/1/5 343/1/5
f 353/1/5 350/1/5 349/1/5
f 354/1/5 292/1/5 352/1/5
f 354/1/5 352/1/5 353/1/5
f 354/2/5 290/2/5 292/2/5
f 355/2/5 353/2/5 289/2/5
f 355/2/5 354/2/5 353/2/5
f 356/2/5 290/2/5 354/2/5
f 356/2/5 354/2/5 355/2/5
f 357/2/6 358/2/6 359/2/6
f 359/2/6 358/2/6 360/2/6
f 359/1/6 360/1/6 361/1/6
f 361/1/6 360/1/6 362/1/6
f 362/1/6 360/1/6 363/1/6
f 363/1/6 360/1/6 364/1/6
f 364/1/6 360/1/6 365/1/6
f 365/1/6 360/1/6 366/1/6
f 366/1/6 360/1/6 367/1/6
f 367/1/6 360/1/6 368/1/6
f 368/1/6 360/1/6 369/1/6
f 369/1/6 360/1/6 370/1/6
f 362/1/6 363/1/6 372/1/6
f 366/1/6 367/1/6 373/1/6
f 368/1/6 369/1/6 376/1/6
f 371/1/6 372/1/6 377/1/6
f 372/1/6 363/1/6 377/1/6
f 364/1/6 365/1/6 378/1/6
f 378/1/6 365/1/6 379/1/6
f 379/1/6 365/1/6 380/1/6
f 380/1/6 365/1/6 381/1/6
f 373/1/6 374/1/6 382/1/6
f 366/1/6 373/1/6 382/1/6
f 377/1/6 378/1/6 383/1/6
f 379/1/6 380/1/6 384/1/6
f 384/1/6 380/1/6 385/1/6
f 381/1/6 382/1/6 386/1/6
f 371/1/6 377/1/6 387/1/6
f 377/1/6 383/1/6 387/1/6
f 383/1/6 384/1/6 387/1/6
f 387/1/6 384/1/6 388/1/6
f 388/1/6 384/1/6 390/1/6
f 390/1/6 384/1/6 391/1/6
f 389/1/6 390/1/6 391/1/6
f 391/1/6 384/1/6 392/1/6
f 385/1/6 386/1/6 393/1/6
f 386/1/6 382/1/6 394/1/6
f 393/1/6 386/1/6 394/1/6
f 389/1/6 391/1/6 395/1/6
f 395/1/6 391/1/6 396/1/6
f 392/1/6 393/1/6 397/1/6
f 397/1/6 393/1/6 398/1/6
f 394/1/6 382/1/6 399/1/6
f 382/1/6 374/1/6 400/1/6
f 399/1/6 382/1/6 400/1/6
f 389/1/6 395/1/6 401/1/6
f 401/1/6 395/1/6 402/1/6
f 400/1/6 374/1/6 403/1/6
f 403/1/6 374/1/6 404/1/6
f 375/1/6 376/1/6 405/1/6
f 376/1/6 369/1/6 406/1/6
f 405/1/6 376/1/6 406/1/6
f 406/1/6 369/1/6 407/1/6
f 407/1/6 369/1/6 408/1/6
f 370/1/6 360/1/6 409/1/6
f 409/1/6 360/1/6 410/1/6
f 359/1/6 361/1/6 411/1/6
f 402/1/6 395/1/6 412/1/6
f 412/1/6 395/1/6 413/1/6
f 397/1/6 398/1/6 414/1/6
f 398/1/6 399/1/6 414/1/6
f 396/1/6 397/1/6 414/1/6
f 414/1/6 399/1/6 415/1/6
f 400/1/6 403/1/6 416/1/6
f 416/1/6 403/1/6 417/1/6
f 406/1/6 407/1/6 418/1/6
f 418/1/6 407/1/6 419/1/6
f 410/1/6 360/1/6 420/1/6
f 357/2/6 359/2/6 421/2/6
f 419/1/6 420/1/6 421/1/6
f 418/1/6 419/1/6 421/1/6
f 416/1/6 417/1/6 421/1/6
f 417/1/6 418/1/6 421/1/6
f 412/1/6 413/1/6 421/1/6
f 415/1/6 416/1/6 421/1/6
f 359/1/6 411/1/6 421/1/6
f 413/1/6 414/1/6 421/1/6
f 411/1/6 412/1/6 421/1/6
f 414/1/6 415/1/6 421/1/6
f 420/1/6 360/1/6 422/1/6
f 421/1/6 420/1/6 422/1/6
f 360/2/6 358/2/6 422/2/6
f 357/2/6 421/2/6 423/2/6
f 421/2/6 422/2/6 423/2/6
f 422/2/6 358/2/6 424/2/6
f 423/2/6 422/2/6 424/2/6
f 425/2/6 426/2/6 435/2/6
f 435/2/6 426/2/6 436/2/6
f 431/2/6 432/2/6 437/2/6
f 437/2/6 432/2/6 438/2/6
f 438/2/6 432/2/6 439/2/6
f 439/2/6 432/2/6 440/2/6
f 427/2/6 428/2/6 441/2/6
f 441/2/6 428/2/6 442/2/6
f 429/2/6 430/2/6 445/2/6
f 445/2/6 430/2/6 446/2/6
f 442/2/6 443/2/6 447/2/6
f 447/2/6 443/2/6 448/2/6
f 444/2/6 445/2/6 449/2/6
f 449/2/6 445/2/6 450/2/6
f 425/2/6 435/2/6 451/2/6
f 425/2/6 451/2/6 453/2/6
f 451/2/6 452/2/6 453/2/6
f 453/2/6 452/2/6 454/2/6
f 448/2/6 449/2/6 456/2/6
f 456/2/6 449/2/6 457/2/6
f 455/2/6 456/2/6 460/2/6
f 460/2/6 456/2/6 461/2/6
f 457/2/6 458/2/6 462/2/6
f 462/2/6 458/2/6 463/2/6
f 425/2/6 453/2/6 465/2/6
f 438/2/6 439/2/6 468/2/6
f 468/2/6 439/2/6 469/2/6
f 433/2/6 434/2/6 472/2/6
f 472/2/6 434/2/6 473/2/6
f 465/2/6 466/2/6 475/2/6
f 425/2/6 465/2/6 475/2/6
f 475/2/6 466/2/6 476/2/6
f 459/2/6 460/2/6 477/2/6
f 477/2/6 460/2/6 478/2/6
f 463/2/6 464/2/6 479/2/6
f 479/2/6 464/2/6 480/2/6
f 468/2/6 469/2/6 481/2/6
f 469/2/6 470/2/6 481/2/6
f 467/2/6 468/2/6 481/2/6
f 481/2/6 470/2/6 482/2/6
f 473/2/6 474/2/6 483/2/6
f 472/2/6 473/2/6 483/2/6
f 471/2/6 472/2/6 483/2/6
f 483/2/6 474/2/6 484/2/6
