# MagicaVoxel @ Ephtracy

# material
mtllib Basic Corner.mtl
usemtl palette

# normals
vn -1 0 0
vn 1 0 0
vn 0 0 1
vn 0 0 -1
vn 0 -1 0
vn 0 1 0

# texcoords
vt 0.958984 0.5
vt 0.986328 0.5
vt 0.994141 0.5

# verts
v -63 0 13
v -63 0 -12
v -63 2 11
v -63 2 10
v -63 2 -10
v -63 2 -11
v -63 3 11
v -63 3 10
v -63 3 -10
v -63 3 -11
v -63 22 11
v -63 22 10
v -63 22 -10
v -63 22 -11
v -63 23 10
v -63 23 9
v -63 23 -9
v -63 23 -10
v -63 24 9
v -63 24 8
v -63 24 -8
v -63 24 -9
v -63 25 8
v -63 25 6
v -63 25 -6
v -63 25 -8
v -63 26 6
v -63 26 -6
v -63 27 13
v -63 27 -12
v -13 0 63
v -13 0 13
v -13 27 63
v -13 27 13
v 5 25 63
v 5 25 -6
v 5 26 63
v 5 26 -6
v 7 24 63
v 7 24 -8
v 7 25 63
v 7 25 -8
v 8 23 63
v 8 23 -9
v 8 24 63
v 8 24 -9
v 9 22 63
v 9 22 -10
v 9 23 63
v 9 23 -10
v 10 3 63
v 10 3 -11
v 10 22 63
v 10 22 -11
v -12 3 63
v -12 3 11
v -12 22 63
v -12 22 11
v -11 22 63
v -11 22 10
v -11 23 63
v -11 23 10
v -10 23 63
v -10 23 9
v -10 24 63
v -10 24 9
v -9 24 63
v -9 24 8
v -9 25 63
v -9 25 8
v -7 25 63
v -7 25 6
v -7 26 63
v -7 26 6
v 12 0 63
v 12 0 -12
v 12 27 63
v 12 27 -12
v -13 0 63
v -13 27 63
v -12 2 63
v -12 3 63
v -12 22 63
v -11 2 63
v -11 3 63
v -11 22 63
v -11 23 63
v -10 23 63
v -10 24 63
v -9 24 63
v -9 25 63
v -7 25 63
v -7 26 63
v 5 25 63
v 5 26 63
v 7 24 63
v 7 25 63
v 8 23 63
v 8 24 63
v 9 2 63
v 9 3 63
v 9 22 63
v 9 23 63
v 10 2 63
v 10 3 63
v 10 22 63
v 12 0 63
v 12 27 63
v -63 0 13
v -63 27 13
v -13 0 13
v -13 27 13
v -63 25 -6
v -63 26 -6
v 5 25 -6
v 5 26 -6
v -63 24 -8
v -63 25 -8
v 7 24 -8
v 7 25 -8
v -63 23 -9
v -63 24 -9
v 8 23 -9
v 8 24 -9
v -63 22 -10
v -63 23 -10
v 9 22 -10
v 9 23 -10
v -63 3 -11
v -63 22 -11
v 10 3 -11
v 10 22 -11
v -63 3 11
v -63 22 11
v -12 3 11
v -12 22 11
v -63 22 10
v -63 23 10
v -11 22 10
v -11 23 10
v -63 23 9
v -63 24 9
v -10 23 9
v -10 24 9
v -63 24 8
v -63 25 8
v -9 24 8
v -9 25 8
v -63 25 6
v -63 26 6
v -7 25 6
v -7 26 6
v -63 0 -12
v -63 27 -12
v 12 0 -12
v 12 27 -12
v -13 0 63
v 12 0 63
v -63 0 13
v -13 0 13
v -63 0 -12
v 12 0 -12
v -12 22 63
v -11 22 63
v 9 22 63
v 10 22 63
v -63 22 11
v -12 22 11
v -63 22 10
v -11 22 10
v -63 22 -10
v 9 22 -10
v -63 22 -11
v 10 22 -11
v -11 23 63
v -10 23 63
v 8 23 63
v 9 23 63
v -63 23 10
v -11 23 10
v -63 23 9
v -10 23 9
v -63 23 -9
v 8 23 -9
v -63 23 -10
v 9 23 -10
v -10 24 63
v -9 24 63
v 7 24 63
v 8 24 63
v -63 24 9
v -10 24 9
v -63 24 8
v -9 24 8
v -63 24 -8
v 7 24 -8
v -63 24 -9
v 8 24 -9
v -9 25 63
v -7 25 63
v 5 25 63
v 7 25 63
v -63 25 8
v -9 25 8
v -63 25 6
v -7 25 6
v -63 25 -6
v 5 25 -6
v -63 25 -8
v 7 25 -8
v -7 26 63
v 5 26 63
v -63 26 6
v -7 26 6
v -63 26 -6
v 5 26 -6
v -12 3 63
v -11 3 63
v 9 3 63
v 10 3 63
v -63 3 11
v -12 3 11
v -63 3 10
v -11 3 10
v -63 3 -10
v 9 3 -10
v -63 3 -11
v 10 3 -11
v -13 27 63
v 12 27 63
v -63 27 13
v -13 27 13
v -63 27 -12
v 12 27 -12

# faces
f 3/2/1 2/2/1 1/2/1
f 4/2/1 2/2/1 3/2/1
f 5/2/1 2/2/1 4/2/1
f 6/2/1 2/2/1 5/2/1
f 7/2/1 3/2/1 1/2/1
f 7/1/1 4/1/1 3/1/1
f 8/3/1 5/3/1 4/3/1
f 8/1/1 4/1/1 7/1/1
f 9/1/1 6/1/1 5/1/1
f 9/3/1 5/3/1 8/3/1
f 10/2/1 2/2/1 6/2/1
f 10/1/1 6/1/1 9/1/1
f 11/2/1 7/2/1 1/2/1
f 14/2/1 2/2/1 10/2/1
f 15/2/1 12/2/1 11/2/1
f 18/2/1 14/2/1 13/2/1
f 19/2/1 16/2/1 15/2/1
f 22/2/1 18/2/1 17/2/1
f 23/2/1 20/2/1 19/2/1
f 26/2/1 22/2/1 21/2/1
f 27/2/1 24/2/1 23/2/1
f 28/2/1 26/2/1 25/2/1
f 29/2/1 27/2/1 23/2/1
f 29/2/1 28/2/1 27/2/1
f 29/2/1 11/2/1 1/2/1
f 29/2/1 15/2/1 11/2/1
f 29/2/1 19/2/1 15/2/1
f 29/2/1 23/2/1 19/2/1
f 30/2/1 26/2/1 28/2/1
f 30/2/1 28/2/1 29/2/1
f 30/2/1 2/2/1 14/2/1
f 30/2/1 18/2/1 22/2/1
f 30/2/1 22/2/1 26/2/1
f 30/2/1 14/2/1 18/2/1
f 33/2/1 32/2/1 31/2/1
f 34/2/1 32/2/1 33/2/1
f 37/2/1 36/2/1 35/2/1
f 38/2/1 36/2/1 37/2/1
f 41/2/1 40/2/1 39/2/1
f 42/2/1 40/2/1 41/2/1
f 45/2/1 44/2/1 43/2/1
f 46/2/1 44/2/1 45/2/1
f 49/2/1 48/2/1 47/2/1
f 50/2/1 48/2/1 49/2/1
f 53/2/1 52/2/1 51/2/1
f 54/2/1 52/2/1 53/2/1
f 55/2/2 56/2/2 57/2/2
f 57/2/2 56/2/2 58/2/2
f 59/2/2 60/2/2 61/2/2
f 61/2/2 60/2/2 62/2/2
f 63/2/2 64/2/2 65/2/2
f 65/2/2 64/2/2 66/2/2
f 67/2/2 68/2/2 69/2/2
f 69/2/2 68/2/2 70/2/2
f 71/2/2 72/2/2 73/2/2
f 73/2/2 72/2/2 74/2/2
f 75/2/2 76/2/2 77/2/2
f 77/2/2 76/2/2 78/2/2
f 81/2/3 80/2/3 79/2/3
f 82/2/3 80/2/3 81/2/3
f 83/2/3 80/2/3 82/2/3
f 84/2/3 81/2/3 79/2/3
f 84/1/3 82/1/3 81/1/3
f 85/1/3 82/1/3 84/1/3
f 86/2/3 80/2/3 83/2/3
f 87/2/3 80/2/3 86/2/3
f 88/2/3 80/2/3 87/2/3
f 89/2/3 80/2/3 88/2/3
f 90/2/3 80/2/3 89/2/3
f 91/2/3 80/2/3 90/2/3
f 92/2/3 80/2/3 91/2/3
f 93/2/3 80/2/3 92/2/3
f 95/2/3 80/2/3 93/2/3
f 97/2/3 95/2/3 94/2/3
f 99/2/3 97/2/3 96/2/3
f 100/3/3 85/3/3 84/3/3
f 100/2/3 84/2/3 79/2/3
f 101/3/3 85/3/3 100/3/3
f 103/2/3 99/2/3 98/2/3
f 104/1/3 101/1/3 100/1/3
f 104/2/3 100/2/3 79/2/3
f 105/1/3 101/1/3 104/1/3
f 106/2/3 103/2/3 102/2/3
f 107/2/3 105/2/3 104/2/3
f 107/2/3 106/2/3 105/2/3
f 107/2/3 104/2/3 79/2/3
f 108/2/3 103/2/3 106/2/3
f 108/2/3 106/2/3 107/2/3
f 108/2/3 97/2/3 99/2/3
f 108/2/3 80/2/3 95/2/3
f 108/2/3 95/2/3 97/2/3
f 108/2/3 99/2/3 103/2/3
f 111/2/3 110/2/3 109/2/3
f 112/2/3 110/2/3 111/2/3
f 115/2/3 114/2/3 113/2/3
f 116/2/3 114/2/3 115/2/3
f 119/2/3 118/2/3 117/2/3
f 120/2/3 118/2/3 119/2/3
f 123/2/3 122/2/3 121/2/3
f 124/2/3 122/2/3 123/2/3
f 127/2/3 126/2/3 125/2/3
f 128/2/3 126/2/3 127/2/3
f 131/2/3 130/2/3 129/2/3
f 132/2/3 130/2/3 131/2/3
f 133/2/4 134/2/4 135/2/4
f 135/2/4 134/2/4 136/2/4
f 137/2/4 138/2/4 139/2/4
f 139/2/4 138/2/4 140/2/4
f 141/2/4 142/2/4 143/2/4
f 143/2/4 142/2/4 144/2/4
f 145/2/4 146/2/4 147/2/4
f 147/2/4 146/2/4 148/2/4
f 149/2/4 150/2/4 151/2/4
f 151/2/4 150/2/4 152/2/4
f 153/2/4 154/2/4 155/2/4
f 155/2/4 154/2/4 156/2/4
f 160/2/5 158/2/5 157/2/5
f 161/2/5 160/2/5 159/2/5
f 162/2/5 158/2/5 160/2/5
f 162/2/5 160/2/5 161/2/5
f 168/2/5 164/2/5 163/2/5
f 169/2/5 168/2/5 167/2/5
f 170/2/5 164/2/5 168/2/5
f 170/2/5 168/2/5 169/2/5
f 172/2/5 166/2/5 165/2/5
f 173/2/5 172/2/5 171/2/5
f 174/2/5 166/2/5 172/2/5
f 174/2/5 172/2/5 173/2/5
f 180/2/5 176/2/5 175/2/5
f 181/2/5 180/2/5 179/2/5
f 182/2/5 176/2/5 180/2/5
f 182/2/5 180/2/5 181/2/5
f 184/2/5 178/2/5 177/2/5
f 185/2/5 184/2/5 183/2/5
f 186/2/5 178/2/5 184/2/5
f 186/2/5 184/2/5 185/2/5
f 192/2/5 188/2/5 187/2/5
f 193/2/5 192/2/5 191/2/5
f 194/2/5 188/2/5 192/2/5
f 194/2/5 192/2/5 193/2/5
f 196/2/5 190/2/5 189/2/5
f 197/2/5 196/2/5 195/2/5
f 198/2/5 190/2/5 196/2/5
f 198/2/5 196/2/5 197/2/5
f 204/2/5 200/2/5 199/2/5
f 205/2/5 204/2/5 203/2/5
f 206/2/5 200/2/5 204/2/5
f 206/2/5 204/2/5 205/2/5
f 208/2/5 202/2/5 201/2/5
f 209/2/5 208/2/5 207/2/5
f 210/2/5 202/2/5 208/2/5
f 210/2/5 208/2/5 209/2/5
f 214/2/5 212/2/5 211/2/5
f 215/2/5 214/2/5 213/2/5
f 216/2/5 212/2/5 214/2/5
f 216/2/5 214/2/5 215/2/5
f 217/1/6 218/1/6 222/1/6
f 221/1/6 222/1/6 223/1/6
f 218/3/6 219/3/6 224/3/6
f 223/1/6 222/1/6 224/1/6
f 222/1/6 218/1/6 224/1/6
f 223/3/6 224/3/6 225/3/6
f 219/1/6 220/1/6 226/1/6
f 225/3/6 224/3/6 226/3/6
f 224/3/6 219/3/6 226/3/6
f 225/1/6 226/1/6 227/1/6
f 226/1/6 220/1/6 228/1/6
f 227/1/6 226/1/6 228/1/6
f 229/2/6 230/2/6 232/2/6
f 231/2/6 232/2/6 233/2/6
f 232/2/6 230/2/6 234/2/6
f 233/2/6 232/2/6 234/2/6
