# MagicaVoxel @ Ephtracy

# material
mtllib Health.mtl
usemtl palette

# normals
vn -1 0 0
vn 1 0 0
vn 0 0 1
vn 0 0 -1
vn 0 -1 0
vn 0 1 0

# texcoords
vt 0.841797 0.5
vt 0.962891 0.5
vt 0.966797 0.5

# verts
v -16 5 -8
v -16 5 -14
v -16 5 -15
v -16 5 -20
v -16 28 -8
v -16 28 -14
v -16 28 -15
v -16 28 -20
v -15 6 -14
v -15 6 -15
v -15 27 -14
v -15 27 -15
v -11 27 -14
v -11 27 -15
v -11 28 -12
v -11 28 -14
v -11 28 -15
v -11 28 -17
v -11 31 -12
v -11 31 -17
v -10 4 -12
v -10 4 -17
v -10 5 -12
v -10 5 -14
v -10 5 -15
v -10 5 -17
v -10 6 -14
v -10 6 -15
v -8 15 -7
v -8 15 -8
v -8 20 -7
v -8 20 -8
v -2 9 -7
v -2 9 -8
v -2 15 -7
v -2 15 -8
v -2 20 -7
v -2 20 -8
v -2 25 -7
v -2 25 -8
v 6 4 -12
v 6 4 -17
v 6 5 -12
v 6 5 -14
v 6 5 -15
v 6 5 -17
v 6 6 -14
v 6 6 -15
v 7 27 -14
v 7 27 -15
v 7 28 -12
v 7 28 -14
v 7 28 -15
v 7 28 -17
v 7 30 -12
v 7 30 -17
v -7 27 -14
v -7 27 -15
v -7 28 -12
v -7 28 -14
v -7 28 -15
v -7 28 -17
v -7 30 -12
v -7 30 -17
v -6 4 -12
v -6 4 -17
v -6 5 -12
v -6 5 -14
v -6 5 -15
v -6 5 -17
v -6 6 -14
v -6 6 -15
v 3 9 -7
v 3 9 -8
v 3 15 -7
v 3 15 -8
v 3 20 -7
v 3 20 -8
v 3 25 -7
v 3 25 -8
v 9 15 -7
v 9 15 -8
v 9 20 -7
v 9 20 -8
v 10 4 -12
v 10 4 -17
v 10 5 -12
v 10 5 -14
v 10 5 -15
v 10 5 -17
v 10 6 -14
v 10 6 -15
v 11 27 -14
v 11 27 -15
v 11 28 -12
v 11 28 -14
v 11 28 -15
v 11 28 -17
v 11 31 -12
v 11 31 -17
v 16 6 -14
v 16 6 -15
v 16 27 -14
v 16 27 -15
v 17 5 -8
v 17 5 -14
v 17 5 -15
v 17 5 -20
v 17 28 -8
v 17 28 -14
v 17 28 -15
v 17 28 -20
v -8 15 -7
v -8 20 -7
v -2 9 -7
v -2 15 -7
v -2 20 -7
v -2 25 -7
v 3 9 -7
v 3 15 -7
v 3 20 -7
v 3 25 -7
v 9 15 -7
v 9 20 -7
v -16 5 -8
v -16 28 -8
v -8 15 -8
v -8 20 -8
v -2 9 -8
v -2 15 -8
v -2 20 -8
v -2 25 -8
v 3 9 -8
v 3 15 -8
v 3 20 -8
v 3 25 -8
v 9 15 -8
v 9 20 -8
v 17 5 -8
v 17 28 -8
v -11 28 -12
v -11 31 -12
v -10 4 -12
v -10 5 -12
v -7 28 -12
v -7 30 -12
v -6 4 -12
v -6 5 -12
v 6 4 -12
v 6 5 -12
v 7 28 -12
v 7 30 -12
v 10 4 -12
v 10 5 -12
v 11 28 -12
v 11 31 -12
v -16 5 -15
v -16 28 -15
v -15 6 -15
v -15 27 -15
v -11 27 -15
v -11 28 -15
v -10 5 -15
v -10 6 -15
v -7 27 -15
v -7 28 -15
v -6 5 -15
v -6 6 -15
v 6 5 -15
v 6 6 -15
v 7 27 -15
v 7 28 -15
v 10 5 -15
v 10 6 -15
v 11 27 -15
v 11 28 -15
v 16 6 -15
v 16 27 -15
v 17 5 -15
v 17 28 -15
v -16 5 -14
v -16 28 -14
v -15 6 -14
v -15 27 -14
v -11 27 -14
v -11 28 -14
v -10 5 -14
v -10 6 -14
v -7 27 -14
v -7 28 -14
v -6 5 -14
v -6 6 -14
v 6 5 -14
v 6 6 -14
v 7 27 -14
v 7 28 -14
v 10 5 -14
v 10 6 -14
v 11 27 -14
v 11 28 -14
v 16 6 -14
v 16 27 -14
v 17 5 -14
v 17 28 -14
v -11 28 -17
v -11 31 -17
v -10 4 -17
v -10 5 -17
v -7 28 -17
v -7 30 -17
v -6 4 -17
v -6 5 -17
v 6 4 -17
v 6 5 -17
v 7 28 -17
v 7 30 -17
v 10 4 -17
v 10 5 -17
v 11 28 -17
v 11 31 -17
v -16 5 -20
v -16 28 -20
v 17 5 -20
v 17 28 -20
v -10 4 -12
v -6 4 -12
v 6 4 -12
v 10 4 -12
v -10 4 -17
v -6 4 -17
v 6 4 -17
v 10 4 -17
v -16 5 -8
v 17 5 -8
v -10 5 -12
v -6 5 -12
v 6 5 -12
v 10 5 -12
v -16 5 -14
v -10 5 -14
v -6 5 -14
v 6 5 -14
v 10 5 -14
v 17 5 -14
v -16 5 -15
v -10 5 -15
v -6 5 -15
v 6 5 -15
v 10 5 -15
v 17 5 -15
v -10 5 -17
v -6 5 -17
v 6 5 -17
v 10 5 -17
v -16 5 -20
v 17 5 -20
v -15 6 -14
v -10 6 -14
v -6 6 -14
v 6 6 -14
v 10 6 -14
v 16 6 -14
v -15 6 -15
v -10 6 -15
v -6 6 -15
v 6 6 -15
v 10 6 -15
v 16 6 -15
v -2 9 -7
v 3 9 -7
v -2 9 -8
v 3 9 -8
v -8 15 -7
v -2 15 -7
v 3 15 -7
v 9 15 -7
v -8 15 -8
v -2 15 -8
v 3 15 -8
v 9 15 -8
v -7 30 -12
v 7 30 -12
v -7 30 -17
v 7 30 -17
v -8 20 -7
v -2 20 -7
v 3 20 -7
v 9 20 -7
v -8 20 -8
v -2 20 -8
v 3 20 -8
v 9 20 -8
v -2 25 -7
v 3 25 -7
v -2 25 -8
v 3 25 -8
v -15 27 -14
v -11 27 -14
v -7 27 -14
v 7 27 -14
v 11 27 -14
v 16 27 -14
v -15 27 -15
v -11 27 -15
v -7 27 -15
v 7 27 -15
v 11 27 -15
v 16 27 -15
v -16 28 -8
v 17 28 -8
v -11 28 -12
v -7 28 -12
v 7 28 -12
v 11 28 -12
v -16 28 -14
v -11 28 -14
v -7 28 -14
v 7 28 -14
v 11 28 -14
v 17 28 -14
v -16 28 -15
v -11 28 -15
v -7 28 -15
v 7 28 -15
v 11 28 -15
v 17 28 -15
v -11 28 -17
v -7 28 -17
v 7 28 -17
v 11 28 -17
v -16 28 -20
v 17 28 -20
v -11 31 -12
v 11 31 -12
v -11 31 -17
v 11 31 -17

# faces
f 5/2/1 2/2/1 1/2/1
f 6/2/1 2/2/1 5/2/1
f 7/2/1 4/2/1 3/2/1
f 8/2/1 4/2/1 7/2/1
f 11/2/1 10/2/1 9/2/1
f 12/2/1 10/2/1 11/2/1
f 16/3/1 14/3/1 13/3/1
f 17/3/1 14/3/1 16/3/1
f 19/3/1 16/3/1 15/3/1
f 19/3/1 18/3/1 17/3/1
f 19/3/1 17/3/1 16/3/1
f 20/3/1 18/3/1 19/3/1
f 23/3/1 22/3/1 21/3/1
f 24/3/1 22/3/1 23/3/1
f 25/3/1 22/3/1 24/3/1
f 26/3/1 22/3/1 25/3/1
f 27/3/1 25/3/1 24/3/1
f 28/3/1 25/3/1 27/3/1
f 31/1/1 30/1/1 29/1/1
f 32/1/1 30/1/1 31/1/1
f 35/1/1 34/1/1 33/1/1
f 36/1/1 34/1/1 35/1/1
f 39/1/1 38/1/1 37/1/1
f 40/1/1 38/1/1 39/1/1
f 43/3/1 42/3/1 41/3/1
f 44/3/1 42/3/1 43/3/1
f 45/3/1 42/3/1 44/3/1
f 46/3/1 42/3/1 45/3/1
f 47/3/1 45/3/1 44/3/1
f 48/3/1 45/3/1 47/3/1
f 52/3/1 50/3/1 49/3/1
f 53/3/1 50/3/1 52/3/1
f 55/3/1 52/3/1 51/3/1
f 55/3/1 54/3/1 53/3/1
f 55/3/1 53/3/1 52/3/1
f 56/3/1 54/3/1 55/3/1
f 57/3/2 58/3/2 60/3/2
f 60/3/2 58/3/2 61/3/2
f 59/3/2 60/3/2 63/3/2
f 61/3/2 62/3/2 63/3/2
f 60/3/2 61/3/2 63/3/2
f 63/3/2 62/3/2 64/3/2
f 65/3/2 66/3/2 67/3/2
f 67/3/2 66/3/2 68/3/2
f 68/3/2 66/3/2 69/3/2
f 69/3/2 66/3/2 70/3/2
f 68/3/2 69/3/2 71/3/2
f 71/3/2 69/3/2 72/3/2
f 73/1/2 74/1/2 75/1/2
f 75/1/2 74/1/2 76/1/2
f 77/1/2 78/1/2 79/1/2
f 79/1/2 78/1/2 80/1/2
f 81/1/2 82/1/2 83/1/2
f 83/1/2 82/1/2 84/1/2
f 85/3/2 86/3/2 87/3/2
f 87/3/2 86/3/2 88/3/2
f 88/3/2 86/3/2 89/3/2
f 89/3/2 86/3/2 90/3/2
f 88/3/2 89/3/2 91/3/2
f 91/3/2 89/3/2 92/3/2
f 93/3/2 94/3/2 96/3/2
f 96/3/2 94/3/2 97/3/2
f 95/3/2 96/3/2 99/3/2
f 97/3/2 98/3/2 99/3/2
f 96/3/2 97/3/2 99/3/2
f 99/3/2 98/3/2 100/3/2
f 101/2/2 102/2/2 103/2/2
f 103/2/2 102/2/2 104/2/2
f 105/2/2 106/2/2 109/2/2
f 109/2/2 106/2/2 110/2/2
f 107/2/2 108/2/2 111/2/2
f 111/2/2 108/2/2 112/2/2
f 116/1/3 114/1/3 113/1/3
f 117/1/3 114/1/3 116/1/3
f 119/1/3 116/1/3 115/1/3
f 119/1/3 118/1/3 117/1/3
f 119/1/3 117/1/3 116/1/3
f 120/1/3 118/1/3 119/1/3
f 121/1/3 118/1/3 120/1/3
f 122/1/3 118/1/3 121/1/3
f 123/1/3 121/1/3 120/1/3
f 124/1/3 121/1/3 123/1/3
f 127/2/3 126/2/3 125/2/3
f 128/2/3 126/2/3 127/2/3
f 129/2/3 127/2/3 125/2/3
f 130/2/3 127/2/3 129/2/3
f 131/2/3 126/2/3 128/2/3
f 132/2/3 126/2/3 131/2/3
f 133/2/3 129/2/3 125/2/3
f 136/2/3 126/2/3 132/2/3
f 137/2/3 134/2/3 133/2/3
f 138/2/3 136/2/3 135/2/3
f 139/2/3 137/2/3 133/2/3
f 139/2/3 138/2/3 137/2/3
f 139/2/3 133/2/3 125/2/3
f 140/2/3 136/2/3 138/2/3
f 140/2/3 138/2/3 139/2/3
f 140/2/3 126/2/3 136/2/3
f 145/3/3 142/3/3 141/3/3
f 146/3/3 142/3/3 145/3/3
f 147/3/3 144/3/3 143/3/3
f 148/3/3 144/3/3 147/3/3
f 152/3/3 142/3/3 146/3/3
f 153/3/3 150/3/3 149/3/3
f 154/3/3 150/3/3 153/3/3
f 155/3/3 152/3/3 151/3/3
f 156/3/3 142/3/3 152/3/3
f 156/3/3 152/3/3 155/3/3
f 159/2/3 158/2/3 157/2/3
f 160/2/3 158/2/3 159/2/3
f 161/2/3 158/2/3 160/2/3
f 162/2/3 158/2/3 161/2/3
f 163/2/3 159/2/3 157/2/3
f 164/2/3 159/2/3 163/2/3
f 169/2/3 168/2/3 167/2/3
f 170/2/3 168/2/3 169/2/3
f 171/2/3 166/2/3 165/2/3
f 172/2/3 166/2/3 171/2/3
f 177/2/3 174/2/3 173/2/3
f 178/2/3 176/2/3 175/2/3
f 179/2/3 177/2/3 173/2/3
f 179/2/3 178/2/3 177/2/3
f 180/2/3 176/2/3 178/2/3
f 180/2/3 178/2/3 179/2/3
f 181/2/4 182/2/4 183/2/4
f 183/2/4 182/2/4 184/2/4
f 184/2/4 182/2/4 185/2/4
f 185/2/4 182/2/4 186/2/4
f 181/2/4 183/2/4 187/2/4
f 187/2/4 183/2/4 188/2/4
f 191/2/4 192/2/4 193/2/4
f 193/2/4 192/2/4 194/2/4
f 189/2/4 190/2/4 195/2/4
f 195/2/4 190/2/4 196/2/4
f 197/2/4 198/2/4 201/2/4
f 199/2/4 200/2/4 202/2/4
f 197/2/4 201/2/4 203/2/4
f 201/2/4 202/2/4 203/2/4
f 202/2/4 200/2/4 204/2/4
f 203/2/4 202/2/4 204/2/4
f 205/3/4 206/3/4 209/3/4
f 209/3/4 206/3/4 210/3/4
f 207/3/4 208/3/4 211/3/4
f 211/3/4 208/3/4 212/3/4
f 210/3/4 206/3/4 216/3/4
f 213/3/4 214/3/4 217/3/4
f 217/3/4 214/3/4 218/3/4
f 215/3/4 216/3/4 219/3/4
f 216/3/4 206/3/4 220/3/4
f 219/3/4 216/3/4 220/3/4
f 221/2/4 222/2/4 223/2/4
f 223/2/4 222/2/4 224/2/4
f 229/3/5 226/3/5 225/3/5
f 230/3/5 226/3/5 229/3/5
f 231/3/5 228/3/5 227/3/5
f 232/3/5 228/3/5 231/3/5
f 235/2/5 234/2/5 233/2/5
f 236/2/5 234/2/5 235/2/5
f 237/2/5 234/2/5 236/2/5
f 238/2/5 234/2/5 237/2/5
f 239/2/5 235/2/5 233/2/5
f 240/2/5 235/2/5 239/2/5
f 241/2/5 237/2/5 236/2/5
f 242/2/5 237/2/5 241/2/5
f 243/2/5 234/2/5 238/2/5
f 244/2/5 234/2/5 243/2/5
f 251/2/5 246/2/5 245/2/5
f 252/2/5 248/2/5 247/2/5
f 253/2/5 248/2/5 252/2/5
f 254/2/5 250/2/5 249/2/5
f 255/2/5 253/2/5 252/2/5
f 255/2/5 254/2/5 253/2/5
f 255/2/5 251/2/5 245/2/5
f 255/2/5 252/2/5 251/2/5
f 256/2/5 250/2/5 254/2/5
f 256/2/5 254/2/5 255/2/5
f 263/2/5 258/2/5 257/2/5
f 264/2/5 258/2/5 263/2/5
f 265/2/5 260/2/5 259/2/5
f 266/2/5 260/2/5 265/2/5
f 267/2/5 262/2/5 261/2/5
f 268/2/5 262/2/5 267/2/5
f 271/1/5 270/1/5 269/1/5
f 272/1/5 270/1/5 271/1/5
f 277/1/5 274/1/5 273/1/5
f 278/1/5 274/1/5 277/1/5
f 279/1/5 276/1/5 275/1/5
f 280/1/5 276/1/5 279/1/5
f 283/3/5 282/3/5 281/3/5
f 284/3/5 282/3/5 283/3/5
f 285/1/6 286/1/6 289/1/6
f 289/1/6 286/1/6 290/1/6
f 287/1/6 288/1/6 291/1/6
f 291/1/6 288/1/6 292/1/6
f 293/1/6 294/1/6 295/1/6
f 295/1/6 294/1/6 296/1/6
f 297/2/6 298/2/6 303/2/6
f 303/2/6 298/2/6 304/2/6
f 299/2/6 300/2/6 305/2/6
f 305/2/6 300/2/6 306/2/6
f 301/2/6 302/2/6 307/2/6
f 307/2/6 302/2/6 308/2/6
f 309/2/6 310/2/6 311/2/6
f 311/2/6 310/2/6 312/2/6
f 312/2/6 310/2/6 313/2/6
f 313/2/6 310/2/6 314/2/6
f 309/2/6 311/2/6 315/2/6
f 315/2/6 311/2/6 316/2/6
f 312/2/6 313/2/6 317/2/6
f 317/2/6 313/2/6 318/2/6
f 314/2/6 310/2/6 319/2/6
f 319/2/6 310/2/6 320/2/6
f 321/2/6 322/2/6 327/2/6
f 323/2/6 324/2/6 328/2/6
f 328/2/6 324/2/6 329/2/6
f 325/2/6 326/2/6 330/2/6
f 328/2/6 329/2/6 331/2/6
f 329/2/6 330/2/6 331/2/6
f 321/2/6 327/2/6 331/2/6
f 327/2/6 328/2/6 331/2/6
f 330/2/6 326/2/6 332/2/6
f 331/2/6 330/2/6 332/2/6
f 333/3/6 334/3/6 335/3/6
f 335/3/6 334/3/6 336/3/6
