# MagicaVoxel @ Ephtracy

# material
mtllib Mushroom.mtl
usemtl palette

# normals
vn -1 0 0
vn 1 0 0
vn 0 0 1
vn 0 0 -1
vn 0 -1 0
vn 0 1 0

# texcoords
vt 0.849609 0.5
vt 0.958984 0.5
vt 0.962891 0.5

# verts
v -3 5 1
v -3 5 -0
v -3 5 -2
v -3 6 1
v -3 6 -0
v -3 6 -2
v -2 0 -0
v -2 0 -1
v -2 2 -0
v -2 2 -1
v -2 5 2
v -2 5 1
v -2 5 -2
v -2 5 -3
v -2 6 2
v -2 6 1
v -2 6 -0
v -2 6 -1
v -2 6 -2
v -2 6 -3
v -2 7 1
v -2 7 -1
v -2 7 -2
v -1 0 1
v -1 0 -0
v -1 0 -1
v -1 0 -2
v -1 2 1
v -1 2 -0
v -1 2 -1
v -1 2 -2
v -1 5 3
v -1 5 2
v -1 5 -0
v -1 5 -1
v -1 5 -3
v -1 5 -4
v -1 6 3
v -1 6 2
v -1 6 1
v -1 6 -2
v -1 6 -3
v -1 6 -4
v -1 7 2
v -1 7 1
v -1 7 -1
v -1 7 -2
v -1 7 -3
v -1 8 1
v -1 8 -2
v 0 0 2
v 0 0 1
v 0 0 -2
v 0 0 -3
v 0 2 2
v 0 2 1
v 0 2 -0
v 0 2 -1
v 0 2 -2
v 0 2 -3
v 0 5 1
v 0 5 -0
v 0 5 -1
v 0 5 -2
v 1 0 2
v 1 0 1
v 1 0 -2
v 1 0 -3
v 1 2 2
v 1 2 1
v 1 2 -0
v 1 2 -1
v 1 2 -2
v 1 2 -3
v 1 5 1
v 1 5 -0
v 1 5 -1
v 1 5 -2
v 2 0 1
v 2 0 -0
v 2 0 -1
v 2 0 -2
v 2 2 1
v 2 2 -0
v 2 2 -1
v 2 2 -2
v 2 5 3
v 2 5 2
v 2 5 -0
v 2 5 -1
v 2 5 -3
v 2 5 -4
v 2 6 3
v 2 6 2
v 2 6 1
v 2 6 -2
v 2 6 -3
v 2 6 -4
v 2 7 2
v 2 7 1
v 2 7 -0
v 2 7 -2
v 2 7 -3
v 2 8 1
v 2 8 -2
v 3 0 -0
v 3 0 -1
v 3 2 -0
v 3 2 -1
v 3 5 2
v 3 5 1
v 3 5 -2
v 3 5 -3
v 3 6 2
v 3 6 1
v 3 6 -0
v 3 6 -2
v 3 6 -3
v 3 7 1
v 3 7 -0
v 3 7 -2
v 4 5 1
v 4 5 -2
v 4 6 1
v 4 6 -2
v -1 5 3
v -1 6 3
v 1 5 3
v 1 6 3
v 2 5 3
v 2 6 3
v -2 5 2
v -2 6 2
v -1 5 2
v -1 6 2
v -1 7 2
v 0 0 2
v 0 2 2
v 0 6 2
v 0 7 2
v 1 0 2
v 1 2 2
v 1 6 2
v 2 5 2
v 2 6 2
v 2 7 2
v 3 5 2
v 3 6 2
v -3 5 1
v -3 6 1
v -2 5 1
v -2 6 1
v -2 7 1
v -1 0 1
v -1 2 1
v -1 6 1
v -1 7 1
v -1 8 1
v 0 0 1
v 0 2 1
v 0 5 1
v 0 7 1
v 1 0 1
v 1 2 1
v 1 5 1
v 2 0 1
v 2 2 1
v 2 6 1
v 2 7 1
v 2 8 1
v 3 5 1
v 3 6 1
v 3 7 1
v 4 5 1
v 4 6 1
v -2 0 -0
v -2 2 -0
v -1 0 -0
v -1 2 -0
v -1 5 -0
v 0 2 -0
v 0 5 -0
v 1 2 -0
v 1 5 -0
v 2 0 -0
v 2 2 -0
v 2 5 -0
v 3 0 -0
v 3 2 -0
v -2 0 -1
v -2 2 -1
v -1 0 -1
v -1 2 -1
v -1 5 -1
v 0 2 -1
v 0 5 -1
v 1 2 -1
v 1 5 -1
v 2 0 -1
v 2 2 -1
v 2 5 -1
v 3 0 -1
v 3 2 -1
v -3 5 -2
v -3 6 -2
v -2 5 -2
v -2 6 -2
v -2 7 -2
v -1 0 -2
v -1 2 -2
v -1 6 -2
v -1 7 -2
v -1 8 -2
v 0 0 -2
v 0 2 -2
v 0 5 -2
v 1 0 -2
v 1 2 -2
v 1 5 -2
v 1 7 -2
v 2 0 -2
v 2 2 -2
v 2 6 -2
v 2 7 -2
v 2 8 -2
v 3 5 -2
v 3 6 -2
v 3 7 -2
v 4 5 -2
v 4 6 -2
v -2 5 -3
v -2 6 -3
v -1 5 -3
v -1 6 -3
v -1 7 -3
v 0 0 -3
v 0 2 -3
v 0 6 -3
v 1 0 -3
v 1 2 -3
v 1 6 -3
v 1 7 -3
v 2 5 -3
v 2 6 -3
v 2 7 -3
v 3 5 -3
v 3 6 -3
v -1 5 -4
v -1 6 -4
v 0 5 -4
v 0 6 -4
v 2 5 -4
v 2 6 -4
v 0 0 2
v 1 0 2
v -1 0 1
v 0 0 1
v 1 0 1
v 2 0 1
v -2 0 -0
v -1 0 -0
v 2 0 -0
v 3 0 -0
v -2 0 -1
v -1 0 -1
v 2 0 -1
v 3 0 -1
v -1 0 -2
v 0 0 -2
v 1 0 -2
v 2 0 -2
v 0 0 -3
v 1 0 -3
v -1 5 3
v 1 5 3
v 2 5 3
v -2 5 2
v -1 5 2
v 0 5 2
v 1 5 2
v 2 5 2
v 3 5 2
v -3 5 1
v -2 5 1
v -1 5 1
v 0 5 1
v 1 5 1
v 2 5 1
v 3 5 1
v 4 5 1
v -3 5 -0
v -2 5 -0
v -1 5 -0
v 0 5 -0
v 1 5 -0
v 2 5 -0
v 3 5 -0
v -2 5 -1
v -1 5 -1
v 0 5 -1
v 1 5 -1
v 2 5 -1
v 3 5 -1
v -3 5 -2
v -2 5 -2
v -1 5 -2
v 0 5 -2
v 1 5 -2
v 2 5 -2
v 3 5 -2
v 4 5 -2
v -2 5 -3
v -1 5 -3
v 0 5 -3
v 1 5 -3
v 2 5 -3
v 3 5 -3
v -1 5 -4
v 0 5 -4
v 2 5 -4
v 0 2 2
v 1 2 2
v -1 2 1
v 0 2 1
v 1 2 1
v 2 2 1
v -2 2 -0
v -1 2 -0
v 0 2 -0
v 1 2 -0
v 2 2 -0
v 3 2 -0
v -2 2 -1
v -1 2 -1
v 0 2 -1
v 1 2 -1
v 2 2 -1
v 3 2 -1
v -1 2 -2
v 0 2 -2
v 1 2 -2
v 2 2 -2
v 0 2 -3
v 1 2 -3
v -1 6 3
v 1 6 3
v 2 6 3
v -2 6 2
v -1 6 2
v 0 6 2
v 1 6 2
v 2 6 2
v 3 6 2
v -3 6 1
v -2 6 1
v -1 6 1
v 2 6 1
v 3 6 1
v 4 6 1
v -3 6 -0
v -2 6 -0
v 3 6 -0
v -2 6 -1
v -3 6 -2
v -2 6 -2
v -1 6 -2
v 2 6 -2
v 3 6 -2
v 4 6 -2
v -2 6 -3
v -1 6 -3
v 0 6 -3
v 1 6 -3
v 2 6 -3
v 3 6 -3
v -1 6 -4
v 0 6 -4
v 2 6 -4
v -1 7 2
v 0 7 2
v 2 7 2
v -2 7 1
v -1 7 1
v 0 7 1
v 2 7 1
v 3 7 1
v 2 7 -0
v 3 7 -0
v -2 7 -1
v -1 7 -1
v -2 7 -2
v -1 7 -2
v 1 7 -2
v 2 7 -2
v 3 7 -2
v -1 7 -3
v 1 7 -3
v 2 7 -3
v -1 8 1
v 2 8 1
v 0 8 -0
v 1 8 -0
v 0 8 -1
v 1 8 -1
v -1 8 -2
v 2 8 -2

# faces
f 4/2/1 2/2/1 1/2/1
f 5/1/1 3/1/1 2/1/1
f 5/2/1 2/2/1 4/2/1
f 6/1/1 3/1/1 5/1/1
f 9/3/1 8/3/1 7/3/1
f 10/3/1 8/3/1 9/3/1
f 15/1/1 12/1/1 11/1/1
f 16/1/1 12/1/1 15/1/1
f 19/1/1 14/1/1 13/1/1
f 20/1/1 14/1/1 19/1/1
f 21/1/1 18/1/1 17/1/1
f 21/1/1 17/1/1 16/1/1
f 22/2/1 19/2/1 18/2/1
f 22/1/1 18/1/1 21/1/1
f 23/2/1 19/2/1 22/2/1
f 28/3/1 25/3/1 24/3/1
f 29/3/1 25/3/1 28/3/1
f 30/3/1 27/3/1 26/3/1
f 31/3/1 27/3/1 30/3/1
f 34/3/1 30/3/1 29/3/1
f 35/3/1 30/3/1 34/3/1
f 38/1/1 33/1/1 32/1/1
f 39/1/1 33/1/1 38/1/1
f 42/2/1 37/2/1 36/2/1
f 43/2/1 37/2/1 42/2/1
f 44/2/1 40/2/1 39/2/1
f 45/2/1 40/2/1 44/2/1
f 47/1/1 42/1/1 41/1/1
f 48/1/1 42/1/1 47/1/1
f 49/1/1 46/1/1 45/1/1
f 49/1/1 47/1/1 46/1/1
f 50/1/1 47/1/1 49/1/1
f 55/3/1 52/3/1 51/3/1
f 56/3/1 52/3/1 55/3/1
f 59/3/1 54/3/1 53/3/1
f 60/3/1 54/3/1 59/3/1
f 61/3/1 57/3/1 56/3/1
f 62/3/1 57/3/1 61/3/1
f 63/3/1 59/3/1 58/3/1
f 64/3/1 59/3/1 63/3/1
f 65/3/2 66/3/2 69/3/2
f 69/3/2 66/3/2 70/3/2
f 67/3/2 68/3/2 73/3/2
f 73/3/2 68/3/2 74/3/2
f 70/3/2 71/3/2 75/3/2
f 75/3/2 71/3/2 76/3/2
f 72/3/2 73/3/2 77/3/2
f 77/3/2 73/3/2 78/3/2
f 79/3/2 80/3/2 83/3/2
f 83/3/2 80/3/2 84/3/2
f 81/3/2 82/3/2 85/3/2
f 85/3/2 82/3/2 86/3/2
f 84/3/2 85/3/2 89/3/2
f 89/3/2 85/3/2 90/3/2
f 87/2/2 88/2/2 93/2/2
f 93/2/2 88/2/2 94/2/2
f 91/1/2 92/1/2 97/1/2
f 97/1/2 92/1/2 98/1/2
f 94/1/2 95/1/2 99/1/2
f 99/1/2 95/1/2 100/1/2
f 96/2/2 97/2/2 102/2/2
f 102/2/2 97/2/2 103/2/2
f 100/1/2 101/1/2 104/1/2
f 101/1/2 102/1/2 104/1/2
f 104/1/2 102/1/2 105/1/2
f 106/3/2 107/3/2 108/3/2
f 108/3/2 107/3/2 109/3/2
f 110/1/2 111/1/2 114/1/2
f 114/1/2 111/1/2 115/1/2
f 112/1/2 113/1/2 117/1/2
f 117/1/2 113/1/2 118/1/2
f 115/2/2 116/2/2 119/2/2
f 116/1/2 117/1/2 120/1/2
f 119/2/2 116/2/2 120/2/2
f 120/1/2 117/1/2 121/1/2
f 122/1/2 123/1/2 124/1/2
f 124/1/2 123/1/2 125/1/2
f 128/1/3 127/1/3 126/1/3
f 129/1/3 127/1/3 128/1/3
f 130/2/3 129/2/3 128/2/3
f 131/2/3 129/2/3 130/2/3
f 134/1/3 133/1/3 132/1/3
f 135/1/3 133/1/3 134/1/3
f 139/2/3 136/2/3 135/2/3
f 140/2/3 136/2/3 139/2/3
f 141/3/3 138/3/3 137/3/3
f 142/3/3 138/3/3 141/3/3
f 143/1/3 140/1/3 139/1/3
f 145/1/3 140/1/3 143/1/3
f 146/1/3 140/1/3 145/1/3
f 147/1/3 145/1/3 144/1/3
f 148/1/3 145/1/3 147/1/3
f 151/2/3 150/2/3 149/2/3
f 152/2/3 150/2/3 151/2/3
f 156/1/3 153/1/3 152/1/3
f 157/1/3 153/1/3 156/1/3
f 159/3/3 155/3/3 154/3/3
f 160/3/3 155/3/3 159/3/3
f 162/1/3 158/1/3 157/1/3
f 164/3/3 161/3/3 160/3/3
f 165/3/3 161/3/3 164/3/3
f 166/3/3 164/3/3 163/3/3
f 167/3/3 164/3/3 166/3/3
f 169/1/3 158/1/3 162/1/3
f 170/1/3 158/1/3 169/1/3
f 172/2/3 169/2/3 168/2/3
f 173/2/3 169/2/3 172/2/3
f 174/1/3 172/1/3 171/1/3
f 175/1/3 172/1/3 174/1/3
f 178/3/3 177/3/3 176/3/3
f 179/3/3 177/3/3 178/3/3
f 181/3/3 180/3/3 179/3/3
f 182/3/3 180/3/3 181/3/3
f 186/3/3 184/3/3 183/3/3
f 187/3/3 184/3/3 186/3/3
f 188/3/3 186/3/3 185/3/3
f 189/3/3 186/3/3 188/3/3
f 190/3/4 191/3/4 192/3/4
f 192/3/4 191/3/4 193/3/4
f 193/3/4 194/3/4 195/3/4
f 195/3/4 194/3/4 196/3/4
f 197/3/4 198/3/4 200/3/4
f 200/3/4 198/3/4 201/3/4
f 199/3/4 200/3/4 202/3/4
f 202/3/4 200/3/4 203/3/4
f 204/1/4 205/1/4 206/1/4
f 206/1/4 205/1/4 207/1/4
f 207/2/4 208/2/4 211/2/4
f 211/2/4 208/2/4 212/2/4
f 209/3/4 210/3/4 214/3/4
f 214/3/4 210/3/4 215/3/4
f 215/3/4 216/3/4 218/3/4
f 218/3/4 216/3/4 219/3/4
f 212/1/4 213/1/4 220/1/4
f 217/3/4 218/3/4 221/3/4
f 221/3/4 218/3/4 222/3/4
f 220/1/4 213/1/4 224/1/4
f 224/1/4 213/1/4 225/1/4
f 223/1/4 224/1/4 227/1/4
f 227/1/4 224/1/4 228/1/4
f 226/1/4 227/1/4 229/1/4
f 229/1/4 227/1/4 230/1/4
f 231/1/4 232/1/4 233/1/4
f 233/1/4 232/1/4 234/1/4
f 234/1/4 235/1/4 238/1/4
f 236/3/4 237/3/4 239/3/4
f 239/3/4 237/3/4 240/3/4
f 238/1/4 235/1/4 241/1/4
f 241/1/4 235/1/4 242/1/4
f 241/2/4 242/2/4 244/2/4
f 244/2/4 242/2/4 245/2/4
f 243/1/4 244/1/4 246/1/4
f 246/1/4 244/1/4 247/1/4
f 248/2/4 249/2/4 250/2/4
f 250/2/4 249/2/4 251/2/4
f 250/1/4 251/1/4 252/1/4
f 252/1/4 251/1/4 253/1/4
f 257/3/5 255/3/5 254/3/5
f 258/3/5 255/3/5 257/3/5
f 261/3/5 257/3/5 256/3/5
f 261/3/5 259/3/5 258/3/5
f 261/3/5 258/3/5 257/3/5
f 262/3/5 259/3/5 261/3/5
f 264/3/5 261/3/5 260/3/5
f 264/3/5 263/3/5 262/3/5
f 264/3/5 262/3/5 261/3/5
f 265/3/5 263/3/5 264/3/5
f 266/3/5 263/3/5 265/3/5
f 267/3/5 263/3/5 266/3/5
f 268/3/5 266/3/5 265/3/5
f 269/3/5 266/3/5 268/3/5
f 270/3/5 266/3/5 269/3/5
f 271/3/5 266/3/5 270/3/5
f 272/3/5 270/3/5 269/3/5
f 273/3/5 270/3/5 272/3/5
f 278/1/5 275/1/5 274/1/5
f 279/1/5 275/1/5 278/1/5
f 280/2/5 276/2/5 275/2/5
f 280/1/5 275/1/5 279/1/5
f 281/2/5 276/2/5 280/2/5
f 284/1/5 279/1/5 278/1/5
f 284/1/5 278/1/5 277/1/5
f 285/1/5 279/1/5 284/1/5
f 286/2/5 280/2/5 279/2/5
f 286/1/5 279/1/5 285/1/5
f 287/1/5 282/1/5 281/1/5
f 287/2/5 280/2/5 286/2/5
f 287/1/5 281/1/5 280/1/5
f 288/1/5 282/1/5 287/1/5
f 289/1/5 282/1/5 288/1/5
f 291/2/5 284/2/5 283/2/5
f 292/1/5 285/1/5 284/1/5
f 292/2/5 284/2/5 291/2/5
f 293/2/5 286/2/5 285/2/5
f 293/1/5 285/1/5 292/1/5
f 294/2/5 286/2/5 293/2/5
f 295/2/5 288/2/5 287/2/5
f 296/1/5 290/1/5 289/1/5
f 296/2/5 288/2/5 295/2/5
f 296/1/5 289/1/5 288/1/5
f 297/1/5 290/1/5 296/1/5
f 298/1/5 292/1/5 291/1/5
f 298/2/5 293/2/5 292/2/5
f 299/2/5 293/2/5 298/2/5
f 302/2/5 297/2/5 296/2/5
f 303/1/5 290/1/5 297/1/5
f 303/2/5 297/2/5 302/2/5
f 304/1/5 298/1/5 291/1/5
f 304/1/5 299/1/5 298/1/5
f 305/1/5 299/1/5 304/1/5
f 306/2/5 300/2/5 299/2/5
f 306/1/5 299/1/5 305/1/5
f 307/2/5 300/2/5 306/2/5
f 308/2/5 302/2/5 301/2/5
f 309/1/5 303/1/5 302/1/5
f 309/2/5 302/2/5 308/2/5
f 310/1/5 290/1/5 303/1/5
f 310/1/5 303/1/5 309/1/5
f 311/1/5 290/1/5 310/1/5
f 312/1/5 307/1/5 306/1/5
f 312/1/5 306/1/5 305/1/5
f 313/1/5 307/1/5 312/1/5
f 314/2/5 308/2/5 307/2/5
f 314/1/5 307/1/5 313/1/5
f 315/1/5 310/1/5 309/1/5
f 315/2/5 308/2/5 314/2/5
f 315/1/5 309/1/5 308/1/5
f 316/1/5 310/1/5 315/1/5
f 317/1/5 310/1/5 316/1/5
f 318/2/5 314/2/5 313/2/5
f 319/1/5 316/1/5 315/1/5
f 319/2/5 314/2/5 318/2/5
f 319/1/5 315/1/5 314/1/5
f 320/1/5 316/1/5 319/1/5
f 321/3/6 322/3/6 324/3/6
f 324/3/6 322/3/6 325/3/6
f 323/3/6 324/3/6 328/3/6
f 328/3/6 324/3/6 329/3/6
f 325/3/6 326/3/6 330/3/6
f 330/3/6 326/3/6 331/3/6
f 327/3/6 328/3/6 333/3/6
f 333/3/6 328/3/6 334/3/6
f 331/3/6 332/3/6 337/3/6
f 337/3/6 332/3/6 338/3/6
f 334/3/6 335/3/6 339/3/6
f 339/3/6 335/3/6 340/3/6
f 336/3/6 337/3/6 341/3/6
f 341/3/6 337/3/6 342/3/6
f 340/3/6 341/3/6 343/3/6
f 343/3/6 341/3/6 344/3/6
f 345/1/6 346/1/6 349/1/6
f 349/1/6 346/1/6 350/1/6
f 346/2/6 347/2/6 351/2/6
f 350/1/6 346/1/6 351/1/6
f 351/2/6 347/2/6 352/2/6
f 348/1/6 349/1/6 355/1/6
f 355/1/6 349/1/6 356/1/6
f 352/1/6 353/1/6 357/1/6
f 357/1/6 353/1/6 358/1/6
f 354/2/6 355/2/6 360/2/6
f 360/2/6 355/2/6 361/2/6
f 358/1/6 359/1/6 362/1/6
f 360/1/6 361/1/6 363/1/6
f 360/1/6 363/1/6 364/1/6
f 364/1/6 363/1/6 365/1/6
f 362/1/6 359/1/6 368/1/6
f 368/1/6 359/1/6 369/1/6
f 365/1/6 366/1/6 370/1/6
f 370/1/6 366/1/6 371/1/6
f 367/1/6 368/1/6 374/1/6
f 374/1/6 368/1/6 375/1/6
f 371/2/6 372/2/6 376/2/6
f 372/1/6 373/1/6 377/1/6
f 376/2/6 372/2/6 377/2/6
f 373/1/6 374/1/6 377/1/6
f 377/1/6 374/1/6 378/1/6
f 379/2/6 380/2/6 383/2/6
f 380/1/6 381/1/6 384/1/6
f 383/2/6 380/2/6 384/2/6
f 384/1/6 381/1/6 385/1/6
f 385/2/6 386/2/6 387/2/6
f 387/2/6 386/2/6 388/2/6
f 382/1/6 383/1/6 389/1/6
f 389/1/6 383/1/6 390/1/6
f 389/2/6 390/2/6 391/2/6
f 391/2/6 390/2/6 392/2/6
f 387/1/6 388/1/6 394/1/6
f 394/1/6 388/1/6 395/1/6
f 392/1/6 393/1/6 396/1/6
f 393/2/6 394/2/6 397/2/6
f 396/1/6 393/1/6 397/1/6
f 397/2/6 394/2/6 398/2/6
f 399/1/6 400/1/6 401/1/6
f 401/1/6 400/1/6 402/1/6
f 399/1/6 401/1/6 403/1/6
f 401/2/6 402/2/6 403/2/6
f 402/1/6 400/1/6 404/1/6
f 403/2/6 402/2/6 404/2/6
f 399/1/6 403/1/6 405/1/6
f 403/1/6 404/1/6 405/1/6
f 404/1/6 400/1/6 406/1/6
f 405/1/6 404/1/6 406/1/6
