# MagicaVoxel @ Ephtracy

# material
mtllib SmallSLong.mtl
usemtl palette

# normals
vn -1 0 0
vn 1 0 0
vn 0 0 1
vn 0 0 -1
vn 0 -1 0
vn 0 1 0

# texcoords
vt 0.560547 0.5
vt 0.845703 0.5
vt 0.849609 0.5
vt 0.853516 0.5
vt 0.857422 0.5
vt 0.861328 0.5
vt 0.865234 0.5
vt 0.869141 0.5
vt 0.873047 0.5
vt 0.958984 0.5
vt 0.970703 0.5
vt 0.974609 0.5
vt 0.982422 0.5
vt 0.986328 0.5

# verts
v -5 0 8
v -5 0 -7
v -5 2 8
v -5 2 6
v -5 2 4
v -5 2 2
v -5 2 -0
v -5 2 -2
v -5 2 -4
v -5 2 -6
v -5 2 -7
v -5 3 8
v -5 3 7
v -5 3 6
v -5 3 5
v -5 3 4
v -5 3 3
v -5 3 2
v -5 3 1
v -5 3 -0
v -5 3 -1
v -5 3 -2
v -5 3 -3
v -5 3 -4
v -5 3 -5
v -5 3 -6
v -5 3 -7
v -5 4 8
v -5 4 7
v -5 4 6
v -5 4 5
v -5 4 4
v -5 4 3
v -5 4 2
v -5 4 1
v -5 4 -0
v -5 4 -1
v -5 4 -2
v -5 4 -3
v -5 4 -4
v -5 4 -5
v -5 4 -6
v -5 4 -7
v -5 5 7
v -5 5 6
v -5 5 5
v -5 5 4
v -5 5 3
v -5 5 2
v -5 5 1
v -5 5 -0
v -5 5 -1
v -5 5 -2
v -5 5 -3
v -5 5 -4
v -5 5 -5
v -5 5 -6
v -5 6 8
v -5 6 7
v -5 6 5
v -5 6 3
v -5 6 1
v -5 6 -1
v -5 6 -3
v -5 6 -4
v -5 6 -5
v -5 6 -7
v -5 8 8
v -5 8 -7
v -2 8 8
v -2 8 -7
v -2 9 8
v -2 9 -7
v 1 1 8
v 1 1 -7
v 1 2 8
v 1 2 -7
v 1 7 8
v 1 7 -7
v 1 8 8
v 1 8 -7
v 2 6 8
v 2 6 -7
v 2 7 8
v 2 7 -7
v 3 2 8
v 3 2 -7
v 3 6 8
v 3 6 -7
v -4 2 8
v -4 2 6
v -4 2 4
v -4 2 2
v -4 2 -0
v -4 2 -2
v -4 2 -4
v -4 2 -6
v -4 2 -7
v -4 3 8
v -4 3 7
v -4 3 6
v -4 3 5
v -4 3 4
v -4 3 3
v -4 3 2
v -4 3 1
v -4 3 -0
v -4 3 -1
v -4 3 -2
v -4 3 -3
v -4 3 -4
v -4 3 -5
v -4 3 -6
v -4 3 -7
v -4 4 8
v -4 4 7
v -4 4 6
v -4 4 5
v -4 4 4
v -4 4 3
v -4 4 2
v -4 4 1
v -4 4 -0
v -4 4 -1
v -4 4 -2
v -4 4 -3
v -4 4 -4
v -4 4 -5
v -4 4 -6
v -4 4 -7
v -4 5 7
v -4 5 6
v -4 5 5
v -4 5 4
v -4 5 3
v -4 5 2
v -4 5 1
v -4 5 -0
v -4 5 -1
v -4 5 -2
v -4 5 -3
v -4 5 -4
v -4 5 -5
v -4 5 -6
v -4 6 8
v -4 6 7
v -4 6 5
v -4 6 3
v -4 6 1
v -4 6 -1
v -4 6 -3
v -4 6 -4
v -4 6 -5
v -4 6 -7
v -3 6 8
v -3 6 -7
v -3 7 8
v -3 7 -7
v -2 1 8
v -2 1 -7
v -2 2 8
v -2 2 -7
v -2 7 8
v -2 7 -7
v -2 8 8
v -2 8 -7
v 1 8 8
v 1 8 -7
v 1 9 8
v 1 9 -7
v 4 0 8
v 4 0 -7
v 4 2 8
v 4 2 -7
v 4 6 8
v 4 6 -7
v 4 8 8
v 4 8 -7
v -5 0 8
v -5 2 8
v -5 3 8
v -5 4 8
v -5 6 8
v -5 8 8
v -4 0 8
v -4 1 8
v -4 2 8
v -4 3 8
v -4 4 8
v -4 6 8
v -3 6 8
v -3 7 8
v -2 0 8
v -2 1 8
v -2 2 8
v -2 7 8
v -2 8 8
v -2 9 8
v 1 0 8
v 1 1 8
v 1 2 8
v 1 7 8
v 1 8 8
v 1 9 8
v 2 6 8
v 2 7 8
v 3 0 8
v 3 1 8
v 3 2 8
v 3 6 8
v 4 0 8
v 4 2 8
v 4 6 8
v 4 8 8
v -5 0 -7
v -5 2 -7
v -5 3 -7
v -5 4 -7
v -5 6 -7
v -5 8 -7
v -4 0 -7
v -4 1 -7
v -4 2 -7
v -4 3 -7
v -4 4 -7
v -4 6 -7
v -3 6 -7
v -3 7 -7
v -2 0 -7
v -2 1 -7
v -2 2 -7
v -2 7 -7
v -2 8 -7
v -2 9 -7
v 1 0 -7
v 1 1 -7
v 1 2 -7
v 1 7 -7
v 1 8 -7
v 1 9 -7
v 2 6 -7
v 2 7 -7
v 3 0 -7
v 3 1 -7
v 3 2 -7
v 3 6 -7
v 4 0 -7
v 4 2 -7
v 4 6 -7
v 4 8 -7
v -5 0 8
v -4 0 8
v -2 0 8
v 1 0 8
v 3 0 8
v 4 0 8
v -5 0 -7
v -4 0 -7
v -2 0 -7
v 1 0 -7
v 3 0 -7
v 4 0 -7
v -4 6 8
v -3 6 8
v 2 6 8
v 3 6 8
v -4 6 7
v -4 6 5
v -4 6 3
v -4 6 1
v -4 6 -1
v -4 6 -3
v -4 6 -4
v -4 6 -5
v -4 6 -7
v -3 6 -7
v 2 6 -7
v 3 6 -7
v -3 7 8
v -2 7 8
v 1 7 8
v 2 7 8
v -3 7 -7
v -2 7 -7
v 1 7 -7
v 2 7 -7
v -2 8 8
v 1 8 8
v -2 8 -7
v 1 8 -7
v -2 1 8
v 1 1 8
v -2 1 -7
v 1 1 -7
v -4 2 8
v -2 2 8
v 1 2 8
v 3 2 8
v -4 2 6
v -4 2 4
v -4 2 2
v -4 2 -0
v -4 2 -2
v -4 2 -4
v -4 2 -6
v -4 2 -7
v -2 2 -7
v 1 2 -7
v 3 2 -7
v -5 8 8
v -2 8 8
v 1 8 8
v 4 8 8
v -5 8 -7
v -2 8 -7
v 1 8 -7
v 4 8 -7
v -2 9 8
v 1 9 8
v -2 9 -7
v 1 9 -7

# faces
f 3/14/1 2/14/1 1/14/1
f 4/14/1 2/14/1 3/14/1
f 5/14/1 2/14/1 4/14/1
f 6/14/1 2/14/1 5/14/1
f 7/14/1 2/14/1 6/14/1
f 8/14/1 2/14/1 7/14/1
f 9/14/1 2/14/1 8/14/1
f 10/14/1 2/14/1 9/14/1
f 11/14/1 2/14/1 10/14/1
f 12/8/1 4/8/1 3/8/1
f 13/8/1 4/8/1 12/8/1
f 14/6/1 5/6/1 4/6/1
f 14/8/1 4/8/1 13/8/1
f 15/6/1 5/6/1 14/6/1
f 16/7/1 6/7/1 5/7/1
f 16/6/1 5/6/1 15/6/1
f 17/7/1 6/7/1 16/7/1
f 18/6/1 7/6/1 6/6/1
f 18/7/1 6/7/1 17/7/1
f 19/6/1 7/6/1 18/6/1
f 20/9/1 8/9/1 7/9/1
f 20/6/1 7/6/1 19/6/1
f 21/9/1 8/9/1 20/9/1
f 22/7/1 9/7/1 8/7/1
f 22/9/1 8/9/1 21/9/1
f 23/7/1 9/7/1 22/7/1
f 24/8/1 10/8/1 9/8/1
f 24/7/1 9/7/1 23/7/1
f 25/8/1 10/8/1 24/8/1
f 26/6/1 11/6/1 10/6/1
f 26/8/1 10/8/1 25/8/1
f 27/6/1 11/6/1 26/6/1
f 28/9/1 13/9/1 12/9/1
f 29/7/1 15/7/1 14/7/1
f 29/9/1 13/9/1 28/9/1
f 29/7/1 14/7/1 13/7/1
f 30/7/1 15/7/1 29/7/1
f 31/8/1 17/8/1 16/8/1
f 31/7/1 15/7/1 30/7/1
f 31/8/1 16/8/1 15/8/1
f 32/8/1 17/8/1 31/8/1
f 33/7/1 19/7/1 18/7/1
f 33/8/1 17/8/1 32/8/1
f 33/7/1 18/7/1 17/7/1
f 34/7/1 19/7/1 33/7/1
f 35/8/1 21/8/1 20/8/1
f 35/7/1 19/7/1 34/7/1
f 35/8/1 20/8/1 19/8/1
f 36/8/1 21/8/1 35/8/1
f 37/7/1 23/7/1 22/7/1
f 37/8/1 21/8/1 36/8/1
f 37/7/1 22/7/1 21/7/1
f 38/7/1 23/7/1 37/7/1
f 39/6/1 24/6/1 23/6/1
f 39/7/1 23/7/1 38/7/1
f 40/9/1 25/9/1 24/9/1
f 40/6/1 24/6/1 39/6/1
f 41/7/1 27/7/1 26/7/1
f 41/9/1 25/9/1 40/9/1
f 41/7/1 26/7/1 25/7/1
f 42/7/1 27/7/1 41/7/1
f 43/7/1 27/7/1 42/7/1
f 44/7/1 30/7/1 29/7/1
f 44/7/1 29/7/1 28/7/1
f 45/6/1 32/6/1 31/6/1
f 45/7/1 30/7/1 44/7/1
f 45/6/1 31/6/1 30/6/1
f 46/6/1 32/6/1 45/6/1
f 47/4/1 34/4/1 33/4/1
f 47/6/1 32/6/1 46/6/1
f 47/4/1 33/4/1 32/4/1
f 48/4/1 34/4/1 47/4/1
f 49/5/1 36/5/1 35/5/1
f 49/4/1 34/4/1 48/4/1
f 49/5/1 35/5/1 34/5/1
f 50/5/1 36/5/1 49/5/1
f 51/2/1 38/2/1 37/2/1
f 51/5/1 36/5/1 50/5/1
f 51/2/1 37/2/1 36/2/1
f 52/2/1 38/2/1 51/2/1
f 53/4/1 39/4/1 38/4/1
f 53/2/1 38/2/1 52/2/1
f 53/4/1 40/4/1 39/4/1
f 54/4/1 40/4/1 53/4/1
f 55/7/1 42/7/1 41/7/1
f 55/4/1 40/4/1 54/4/1
f 55/7/1 41/7/1 40/7/1
f 56/7/1 42/7/1 55/7/1
f 57/6/1 43/6/1 42/6/1
f 57/7/1 42/7/1 56/7/1
f 58/7/1 44/7/1 28/7/1
f 59/6/1 46/6/1 45/6/1
f 59/7/1 44/7/1 58/7/1
f 59/6/1 45/6/1 44/6/1
f 60/5/1 48/5/1 47/5/1
f 60/6/1 46/6/1 59/6/1
f 60/5/1 47/5/1 46/5/1
f 61/3/1 50/3/1 49/3/1
f 61/5/1 48/5/1 60/5/1
f 61/3/1 49/3/1 48/3/1
f 62/5/1 52/5/1 51/5/1
f 62/3/1 50/3/1 61/3/1
f 62/5/1 51/5/1 50/5/1
f 63/9/1 53/9/1 52/9/1
f 63/5/1 52/5/1 62/5/1
f 63/9/1 54/9/1 53/9/1
f 64/5/1 55/5/1 54/5/1
f 64/9/1 54/9/1 63/9/1
f 65/7/1 56/7/1 55/7/1
f 65/5/1 55/5/1 64/5/1
f 66/6/1 57/6/1 56/6/1
f 66/7/1 56/7/1 65/7/1
f 67/6/1 43/6/1 57/6/1
f 67/6/1 57/6/1 66/6/1
f 68/13/1 66/13/1 65/13/1
f 68/13/1 59/13/1 58/13/1
f 68/13/1 67/13/1 66/13/1
f 68/13/1 63/13/1 62/13/1
f 68/13/1 65/13/1 64/13/1
f 68/13/1 60/13/1 59/13/1
f 68/13/1 64/13/1 63/13/1
f 68/13/1 62/13/1 61/13/1
f 68/13/1 61/13/1 60/13/1
f 69/13/1 67/13/1 68/13/1
f 72/13/1 71/13/1 70/13/1
f 73/13/1 71/13/1 72/13/1
f 76/12/1 75/12/1 74/12/1
f 77/12/1 75/12/1 76/12/1
f 80/13/1 79/13/1 78/13/1
f 81/13/1 79/13/1 80/13/1
f 84/13/1 83/13/1 82/13/1
f 85/13/1 83/13/1 84/13/1
f 88/1/1 87/1/1 86/1/1
f 89/1/1 87/1/1 88/1/1
f 90/8/2 91/8/2 99/8/2
f 99/8/2 91/8/2 100/8/2
f 91/6/2 92/6/2 101/6/2
f 100/8/2 91/8/2 101/8/2
f 101/6/2 92/6/2 102/6/2
f 92/7/2 93/7/2 103/7/2
f 102/6/2 92/6/2 103/6/2
f 103/7/2 93/7/2 104/7/2
f 93/6/2 94/6/2 105/6/2
f 104/7/2 93/7/2 105/7/2
f 105/6/2 94/6/2 106/6/2
f 94/9/2 95/9/2 107/9/2
f 106/6/2 94/6/2 107/6/2
f 107/9/2 95/9/2 108/9/2
f 95/7/2 96/7/2 109/7/2
f 108/9/2 95/9/2 109/9/2
f 109/7/2 96/7/2 110/7/2
f 96/8/2 97/8/2 111/8/2
f 110/7/2 96/7/2 111/7/2
f 111/8/2 97/8/2 112/8/2
f 97/6/2 98/6/2 113/6/2
f 112/8/2 97/8/2 113/8/2
f 113/6/2 98/6/2 114/6/2
f 99/9/2 100/9/2 115/9/2
f 101/7/2 102/7/2 116/7/2
f 115/9/2 100/9/2 116/9/2
f 100/7/2 101/7/2 116/7/2
f 116/7/2 102/7/2 117/7/2
f 103/8/2 104/8/2 118/8/2
f 117/7/2 102/7/2 118/7/2
f 102/8/2 103/8/2 118/8/2
f 118/8/2 104/8/2 119/8/2
f 105/7/2 106/7/2 120/7/2
f 119/8/2 104/8/2 120/8/2
f 104/7/2 105/7/2 120/7/2
f 120/7/2 106/7/2 121/7/2
f 107/8/2 108/8/2 122/8/2
f 121/7/2 106/7/2 122/7/2
f 106/8/2 107/8/2 122/8/2
f 122/8/2 108/8/2 123/8/2
f 109/7/2 110/7/2 124/7/2
f 123/8/2 108/8/2 124/8/2
f 108/7/2 109/7/2 124/7/2
f 124/7/2 110/7/2 125/7/2
f 110/6/2 111/6/2 126/6/2
f 125/7/2 110/7/2 126/7/2
f 111/9/2 112/9/2 127/9/2
f 126/6/2 111/6/2 127/6/2
f 113/7/2 114/7/2 128/7/2
f 127/9/2 112/9/2 128/9/2
f 112/7/2 113/7/2 128/7/2
f 128/7/2 114/7/2 129/7/2
f 129/7/2 114/7/2 130/7/2
f 116/7/2 117/7/2 131/7/2
f 115/7/2 116/7/2 131/7/2
f 118/6/2 119/6/2 132/6/2
f 131/7/2 117/7/2 132/7/2
f 117/6/2 118/6/2 132/6/2
f 132/6/2 119/6/2 133/6/2
f 120/4/2 121/4/2 134/4/2
f 133/6/2 119/6/2 134/6/2
f 119/4/2 120/4/2 134/4/2
f 134/4/2 121/4/2 135/4/2
f 122/5/2 123/5/2 136/5/2
f 135/4/2 121/4/2 136/4/2
f 121/5/2 122/5/2 136/5/2
f 136/5/2 123/5/2 137/5/2
f 124/2/2 125/2/2 138/2/2
f 137/5/2 123/5/2 138/5/2
f 123/2/2 124/2/2 138/2/2
f 138/2/2 125/2/2 139/2/2
f 125/4/2 126/4/2 140/4/2
f 139/2/2 125/2/2 140/2/2
f 126/4/2 127/4/2 140/4/2
f 140/4/2 127/4/2 141/4/2
f 128/7/2 129/7/2 142/7/2
f 141/4/2 127/4/2 142/4/2
f 127/7/2 128/7/2 142/7/2
f 142/7/2 129/7/2 143/7/2
f 129/6/2 130/6/2 144/6/2
f 143/7/2 129/7/2 144/7/2
f 115/7/2 131/7/2 145/7/2
f 132/6/2 133/6/2 146/6/2
f 145/7/2 131/7/2 146/7/2
f 131/6/2 132/6/2 146/6/2
f 134/5/2 135/5/2 147/5/2
f 146/6/2 133/6/2 147/6/2
f 133/5/2 134/5/2 147/5/2
f 136/3/2 137/3/2 148/3/2
f 147/5/2 135/5/2 148/5/2
f 135/3/2 136/3/2 148/3/2
f 138/5/2 139/5/2 149/5/2
f 148/3/2 137/3/2 149/3/2
f 137/5/2 138/5/2 149/5/2
f 139/9/2 140/9/2 150/9/2
f 149/5/2 139/5/2 150/5/2
f 140/9/2 141/9/2 150/9/2
f 141/5/2 142/5/2 151/5/2
f 150/9/2 141/9/2 151/9/2
f 142/7/2 143/7/2 152/7/2
f 151/5/2 142/5/2 152/5/2
f 143/6/2 144/6/2 153/6/2
f 152/7/2 143/7/2 153/7/2
f 144/6/2 130/6/2 154/6/2
f 153/6/2 144/6/2 154/6/2
f 155/13/2 156/13/2 157/13/2
f 157/13/2 156/13/2 158/13/2
f 159/12/2 160/12/2 161/12/2
f 161/12/2 160/12/2 162/12/2
f 163/13/2 164/13/2 165/13/2
f 165/13/2 164/13/2 166/13/2
f 167/13/2 168/13/2 169/13/2
f 169/13/2 168/13/2 170/13/2
f 171/14/2 172/14/2 173/14/2
f 173/14/2 172/14/2 174/14/2
f 173/1/2 174/1/2 175/1/2
f 175/1/2 174/1/2 176/1/2
f 175/13/2 176/13/2 177/13/2
f 177/13/2 176/13/2 178/13/2
f 185/14/3 180/14/3 179/14/3
f 186/14/3 180/14/3 185/14/3
f 187/8/3 181/8/3 180/8/3
f 187/14/3 180/14/3 186/14/3
f 188/9/3 182/9/3 181/9/3
f 188/8/3 181/8/3 187/8/3
f 189/7/3 183/7/3 182/7/3
f 189/9/3 182/9/3 188/9/3
f 190/13/3 184/13/3 183/13/3
f 190/7/3 183/7/3 189/7/3
f 191/13/3 184/13/3 190/13/3
f 192/13/3 184/13/3 191/13/3
f 193/10/3 186/10/3 185/10/3
f 194/12/3 187/12/3 186/12/3
f 194/10/3 186/10/3 193/10/3
f 195/12/3 187/12/3 194/12/3
f 196/13/3 184/13/3 192/13/3
f 197/13/3 184/13/3 196/13/3
f 199/11/3 194/11/3 193/11/3
f 200/11/3 194/11/3 199/11/3
f 203/13/3 198/13/3 197/13/3
f 204/13/3 198/13/3 203/13/3
f 206/13/3 203/13/3 202/13/3
f 207/10/3 200/10/3 199/10/3
f 208/12/3 201/12/3 200/12/3
f 208/10/3 200/10/3 207/10/3
f 209/12/3 201/12/3 208/12/3
f 210/13/3 206/13/3 205/13/3
f 211/14/3 209/14/3 208/14/3
f 211/14/3 208/14/3 207/14/3
f 212/1/3 210/1/3 209/1/3
f 212/14/3 209/14/3 211/14/3
f 213/13/3 206/13/3 210/13/3
f 213/1/3 210/1/3 212/1/3
f 214/13/3 203/13/3 206/13/3
f 214/13/3 206/13/3 213/13/3
f 215/14/4 216/14/4 221/14/4
f 221/14/4 216/14/4 222/14/4
f 216/6/4 217/6/4 223/6/4
f 222/14/4 216/14/4 223/14/4
f 217/7/4 218/7/4 224/7/4
f 223/6/4 217/6/4 224/6/4
f 218/6/4 219/6/4 225/6/4
f 224/7/4 218/7/4 225/7/4
f 219/13/4 220/13/4 226/13/4
f 225/6/4 219/6/4 226/6/4
f 226/13/4 220/13/4 227/13/4
f 227/13/4 220/13/4 228/13/4
f 221/10/4 222/10/4 229/10/4
f 222/12/4 223/12/4 230/12/4
f 229/10/4 222/10/4 230/10/4
f 230/12/4 223/12/4 231/12/4
f 228/13/4 220/13/4 232/13/4
f 232/13/4 220/13/4 233/13/4
f 229/11/4 230/11/4 235/11/4
f 235/11/4 230/11/4 236/11/4
f 233/13/4 234/13/4 239/13/4
f 239/13/4 234/13/4 240/13/4
f 238/13/4 239/13/4 242/13/4
f 235/10/4 236/10/4 243/10/4
f 236/12/4 237/12/4 244/12/4
f 243/10/4 236/10/4 244/10/4
f 244/12/4 237/12/4 245/12/4
f 241/13/4 242/13/4 246/13/4
f 244/14/4 245/14/4 247/14/4
f 243/14/4 244/14/4 247/14/4
f 245/1/4 246/1/4 248/1/4
f 247/14/4 245/14/4 248/14/4
f 246/13/4 242/13/4 249/13/4
f 248/1/4 246/1/4 249/1/4
f 242/13/4 239/13/4 250/13/4
f 249/13/4 242/13/4 250/13/4
f 257/14/5 252/14/5 251/14/5
f 258/10/5 253/10/5 252/10/5
f 258/14/5 252/14/5 257/14/5
f 259/11/5 254/11/5 253/11/5
f 259/10/5 253/10/5 258/10/5
f 260/10/5 255/10/5 254/10/5
f 260/11/5 254/11/5 259/11/5
f 261/14/5 256/14/5 255/14/5
f 261/10/5 255/10/5 260/10/5
f 262/14/5 256/14/5 261/14/5
f 267/13/5 264/13/5 263/13/5
f 268/13/5 264/13/5 267/13/5
f 269/13/5 264/13/5 268/13/5
f 270/13/5 264/13/5 269/13/5
f 271/13/5 264/13/5 270/13/5
f 272/13/5 264/13/5 271/13/5
f 273/13/5 264/13/5 272/13/5
f 274/13/5 264/13/5 273/13/5
f 275/13/5 264/13/5 274/13/5
f 276/13/5 264/13/5 275/13/5
f 277/13/5 266/13/5 265/13/5
f 278/13/5 266/13/5 277/13/5
f 283/13/5 280/13/5 279/13/5
f 284/13/5 280/13/5 283/13/5
f 285/13/5 282/13/5 281/13/5
f 286/13/5 282/13/5 285/13/5
f 289/13/5 288/13/5 287/13/5
f 290/13/5 288/13/5 289/13/5
f 291/11/6 292/11/6 293/11/6
f 293/11/6 292/11/6 294/11/6
f 295/12/6 296/12/6 299/12/6
f 299/12/6 296/12/6 300/12/6
f 300/12/6 296/12/6 301/12/6
f 301/12/6 296/12/6 302/12/6
f 302/12/6 296/12/6 303/12/6
f 303/12/6 296/12/6 304/12/6
f 304/12/6 296/12/6 305/12/6
f 305/12/6 296/12/6 306/12/6
f 306/12/6 296/12/6 307/12/6
f 297/12/6 298/12/6 308/12/6
f 308/12/6 298/12/6 309/12/6
f 310/13/6 311/13/6 314/13/6
f 314/13/6 311/13/6 315/13/6
f 312/13/6 313/13/6 316/13/6
f 316/13/6 313/13/6 317/13/6
f 318/13/6 319/13/6 320/13/6
f 320/13/6 319/13/6 321/13/6
