# MagicaVoxel @ Ephtracy

# material
mtllib Basic Tunnel.mtl
usemtl palette

# normals
vn -1 0 0
vn 1 0 0
vn 0 0 1
vn 0 0 -1
vn 0 -1 0
vn 0 1 0

# texcoords
vt 0.982422 0.5
vt 0.986328 0.5
vt 0.990234 0.5

# verts
v -12 1 17
v -12 1 -13
v -12 23 17
v -12 23 -13
v -11 23 17
v -11 23 -13
v -11 24 17
v -11 24 -13
v -10 2 17
v -10 2 -13
v -10 3 17
v -10 3 -13
v -10 24 17
v -10 24 -13
v -10 25 17
v -10 25 -13
v -9 25 17
v -9 25 -13
v -9 26 17
v -9 26 -13
v -7 26 17
v -7 26 -13
v -7 27 17
v -7 27 -13
v 6 25 17
v 6 25 -13
v 6 26 17
v 6 26 -13
v 8 24 17
v 8 24 -13
v 8 25 17
v 8 25 -13
v 9 1 17
v 9 1 15
v 9 1 -12
v 9 1 -13
v 9 2 17
v 9 2 15
v 9 2 -12
v 9 2 -13
v 9 23 17
v 9 23 -13
v 9 24 17
v 9 24 -13
v 10 22 17
v 10 22 -13
v 10 23 17
v 10 23 -13
v 11 2 17
v 11 2 -13
v 11 22 17
v 11 22 -13
v -11 2 17
v -11 2 -13
v -11 22 17
v -11 22 -13
v -10 22 17
v -10 22 -13
v -10 23 17
v -10 23 -13
v -9 1 17
v -9 1 15
v -9 1 -12
v -9 1 -13
v -9 2 17
v -9 2 15
v -9 2 -12
v -9 2 -13
v -9 23 17
v -9 23 -13
v -9 24 17
v -9 24 -13
v -8 24 17
v -8 24 -13
v -8 25 17
v -8 25 -13
v -6 25 17
v -6 25 -13
v -6 26 17
v -6 26 -13
v 7 26 17
v 7 26 -13
v 7 27 17
v 7 27 -13
v 9 25 17
v 9 25 -13
v 9 26 17
v 9 26 -13
v 10 2 17
v 10 2 -13
v 10 3 17
v 10 3 -13
v 10 24 17
v 10 24 -13
v 10 25 17
v 10 25 -13
v 11 23 17
v 11 23 -13
v 11 24 17
v 11 24 -13
v 12 1 17
v 12 1 -13
v 12 23 17
v 12 23 -13
v -12 1 17
v -12 23 17
v -11 2 17
v -11 22 17
v -11 23 17
v -11 24 17
v -10 2 17
v -10 3 17
v -10 22 17
v -10 23 17
v -10 24 17
v -10 25 17
v -9 1 17
v -9 2 17
v -9 23 17
v -9 24 17
v -9 25 17
v -9 26 17
v -8 24 17
v -8 25 17
v -7 26 17
v -7 27 17
v -6 25 17
v -6 26 17
v 6 25 17
v 6 26 17
v 7 26 17
v 7 27 17
v 8 24 17
v 8 25 17
v 9 1 17
v 9 2 17
v 9 23 17
v 9 24 17
v 9 25 17
v 9 26 17
v 10 2 17
v 10 3 17
v 10 22 17
v 10 23 17
v 10 24 17
v 10 25 17
v 11 2 17
v 11 22 17
v 11 23 17
v 11 24 17
v 12 1 17
v 12 23 17
v -12 1 -13
v -12 23 -13
v -11 2 -13
v -11 22 -13
v -11 23 -13
v -11 24 -13
v -10 2 -13
v -10 3 -13
v -10 22 -13
v -10 23 -13
v -10 24 -13
v -10 25 -13
v -9 1 -13
v -9 2 -13
v -9 23 -13
v -9 24 -13
v -9 25 -13
v -9 26 -13
v -8 24 -13
v -8 25 -13
v -7 26 -13
v -7 27 -13
v -6 25 -13
v -6 26 -13
v 6 25 -13
v 6 26 -13
v 7 26 -13
v 7 27 -13
v 8 24 -13
v 8 25 -13
v 9 1 -13
v 9 2 -13
v 9 23 -13
v 9 24 -13
v 9 25 -13
v 9 26 -13
v 10 2 -13
v 10 3 -13
v 10 22 -13
v 10 23 -13
v 10 24 -13
v 10 25 -13
v 11 2 -13
v 11 22 -13
v 11 23 -13
v 11 24 -13
v 12 1 -13
v 12 23 -13
v -12 1 17
v -9 1 17
v 9 1 17
v 12 1 17
v -10 1 15
v -9 1 15
v 9 1 15
v 10 1 15
v -10 1 -12
v -9 1 -12
v 9 1 -12
v 10 1 -12
v -12 1 -13
v -9 1 -13
v 9 1 -13
v 12 1 -13
v -9 2 17
v 9 2 17
v -9 2 15
v 9 2 15
v -9 2 -12
v 9 2 -12
v -9 2 -13
v 9 2 -13
v -11 22 17
v -10 22 17
v 10 22 17
v 11 22 17
v -11 22 -13
v -10 22 -13
v 10 22 -13
v 11 22 -13
v -10 23 17
v -9 23 17
v 9 23 17
v 10 23 17
v -10 23 -13
v -9 23 -13
v 9 23 -13
v 10 23 -13
v -9 24 17
v -8 24 17
v 8 24 17
v 9 24 17
v -9 24 -13
v -8 24 -13
v 8 24 -13
v 9 24 -13
v -8 25 17
v -6 25 17
v 6 25 17
v 8 25 17
v -8 25 -13
v -6 25 -13
v 6 25 -13
v 8 25 -13
v -6 26 17
v 6 26 17
v -6 26 -13
v 6 26 -13
v -11 2 17
v -10 2 17
v 10 2 17
v 11 2 17
v -11 2 -13
v -10 2 -13
v 10 2 -13
v 11 2 -13
v -10 3 17
v 10 3 17
v -10 3 -13
v 10 3 -13
v -12 23 17
v -11 23 17
v 11 23 17
v 12 23 17
v -12 23 -13
v -11 23 -13
v 11 23 -13
v 12 23 -13
v -11 24 17
v -10 24 17
v 10 24 17
v 11 24 17
v -11 24 -13
v -10 24 -13
v 10 24 -13
v 11 24 -13
v -10 25 17
v -9 25 17
v 9 25 17
v 10 25 17
v -10 25 -13
v -9 25 -13
v 9 25 -13
v 10 25 -13
v -9 26 17
v -7 26 17
v 7 26 17
v 9 26 17
v -9 26 -13
v -7 26 -13
v 7 26 -13
v 9 26 -13
v -7 27 17
v 7 27 17
v -7 27 -13
v 7 27 -13

# faces
f 3/2/1 2/2/1 1/2/1
f 4/2/1 2/2/1 3/2/1
f 7/2/1 6/2/1 5/2/1
f 8/2/1 6/2/1 7/2/1
f 11/3/1 10/3/1 9/3/1
f 12/3/1 10/3/1 11/3/1
f 15/2/1 14/2/1 13/2/1
f 16/2/1 14/2/1 15/2/1
f 19/2/1 18/2/1 17/2/1
f 20/2/1 18/2/1 19/2/1
f 23/2/1 22/2/1 21/2/1
f 24/2/1 22/2/1 23/2/1
f 27/2/1 26/2/1 25/2/1
f 28/2/1 26/2/1 27/2/1
f 31/2/1 30/2/1 29/2/1
f 32/2/1 30/2/1 31/2/1
f 37/2/1 34/2/1 33/2/1
f 38/1/1 35/1/1 34/1/1
f 38/2/1 34/2/1 37/2/1
f 39/2/1 36/2/1 35/2/1
f 39/1/1 35/1/1 38/1/1
f 40/2/1 36/2/1 39/2/1
f 43/2/1 42/2/1 41/2/1
f 44/2/1 42/2/1 43/2/1
f 47/2/1 46/2/1 45/2/1
f 48/2/1 46/2/1 47/2/1
f 51/2/1 50/2/1 49/2/1
f 52/2/1 50/2/1 51/2/1
f 53/2/2 54/2/2 55/2/2
f 55/2/2 54/2/2 56/2/2
f 57/2/2 58/2/2 59/2/2
f 59/2/2 58/2/2 60/2/2
f 61/2/2 62/2/2 65/2/2
f 62/1/2 63/1/2 66/1/2
f 65/2/2 62/2/2 66/2/2
f 63/2/2 64/2/2 67/2/2
f 66/1/2 63/1/2 67/1/2
f 67/2/2 64/2/2 68/2/2
f 69/2/2 70/2/2 71/2/2
f 71/2/2 70/2/2 72/2/2
f 73/2/2 74/2/2 75/2/2
f 75/2/2 74/2/2 76/2/2
f 77/2/2 78/2/2 79/2/2
f 79/2/2 78/2/2 80/2/2
f 81/2/2 82/2/2 83/2/2
f 83/2/2 82/2/2 84/2/2
f 85/2/2 86/2/2 87/2/2
f 87/2/2 86/2/2 88/2/2
f 89/3/2 90/3/2 91/3/2
f 91/3/2 90/3/2 92/3/2
f 93/2/2 94/2/2 95/2/2
f 95/2/2 94/2/2 96/2/2
f 97/2/2 98/2/2 99/2/2
f 99/2/2 98/2/2 100/2/2
f 101/2/2 102/2/2 103/2/2
f 103/2/2 102/2/2 104/2/2
f 107/2/3 106/2/3 105/2/3
f 108/2/3 106/2/3 107/2/3
f 109/2/3 106/2/3 108/2/3
f 111/2/3 107/2/3 105/2/3
f 113/2/3 110/2/3 109/2/3
f 113/2/3 109/2/3 108/2/3
f 114/2/3 110/2/3 113/2/3
f 115/2/3 110/2/3 114/2/3
f 117/2/3 111/2/3 105/2/3
f 118/3/3 112/3/3 111/3/3
f 118/2/3 111/2/3 117/2/3
f 119/2/3 116/2/3 115/2/3
f 119/2/3 115/2/3 114/2/3
f 120/2/3 116/2/3 119/2/3
f 121/2/3 116/2/3 120/2/3
f 123/2/3 122/2/3 121/2/3
f 123/2/3 121/2/3 120/2/3
f 124/2/3 122/2/3 123/2/3
f 125/2/3 122/2/3 124/2/3
f 127/2/3 125/2/3 124/2/3
f 127/2/3 126/2/3 125/2/3
f 128/2/3 126/2/3 127/2/3
f 130/2/3 126/2/3 128/2/3
f 131/2/3 126/2/3 130/2/3
f 131/2/3 130/2/3 129/2/3
f 132/2/3 126/2/3 131/2/3
f 134/2/3 131/2/3 129/2/3
f 136/3/3 112/3/3 118/3/3
f 138/2/3 134/2/3 133/2/3
f 139/2/3 131/2/3 134/2/3
f 139/2/3 134/2/3 138/2/3
f 140/2/3 131/2/3 139/2/3
f 141/2/3 136/2/3 135/2/3
f 141/3/3 112/3/3 136/3/3
f 142/3/3 112/3/3 141/3/3
f 144/2/3 138/2/3 137/2/3
f 144/2/3 139/2/3 138/2/3
f 145/2/3 139/2/3 144/2/3
f 146/2/3 139/2/3 145/2/3
f 147/2/3 141/2/3 135/2/3
f 148/2/3 145/2/3 144/2/3
f 148/2/3 144/2/3 143/2/3
f 149/2/3 145/2/3 148/2/3
f 150/2/3 145/2/3 149/2/3
f 151/2/3 147/2/3 135/2/3
f 151/2/3 148/2/3 147/2/3
f 151/2/3 149/2/3 148/2/3
f 152/2/3 149/2/3 151/2/3
f 153/2/4 154/2/4 155/2/4
f 155/2/4 154/2/4 156/2/4
f 156/2/4 154/2/4 157/2/4
f 153/2/4 155/2/4 159/2/4
f 157/2/4 158/2/4 161/2/4
f 156/2/4 157/2/4 161/2/4
f 161/2/4 158/2/4 162/2/4
f 162/2/4 158/2/4 163/2/4
f 153/2/4 159/2/4 165/2/4
f 159/3/4 160/3/4 166/3/4
f 165/2/4 159/2/4 166/2/4
f 163/2/4 164/2/4 167/2/4
f 162/2/4 163/2/4 167/2/4
f 167/2/4 164/2/4 168/2/4
f 168/2/4 164/2/4 169/2/4
f 169/2/4 170/2/4 171/2/4
f 168/2/4 169/2/4 171/2/4
f 171/2/4 170/2/4 172/2/4
f 172/2/4 170/2/4 173/2/4
f 172/2/4 173/2/4 175/2/4
f 173/2/4 174/2/4 175/2/4
f 175/2/4 174/2/4 176/2/4
f 176/2/4 174/2/4 178/2/4
f 178/2/4 174/2/4 179/2/4
f 177/2/4 178/2/4 179/2/4
f 179/2/4 174/2/4 180/2/4
f 177/2/4 179/2/4 182/2/4
f 166/3/4 160/3/4 184/3/4
f 181/2/4 182/2/4 186/2/4
f 182/2/4 179/2/4 187/2/4
f 186/2/4 182/2/4 187/2/4
f 187/2/4 179/2/4 188/2/4
f 183/2/4 184/2/4 189/2/4
f 184/3/4 160/3/4 189/3/4
f 189/3/4 160/3/4 190/3/4
f 185/2/4 186/2/4 192/2/4
f 186/2/4 187/2/4 192/2/4
f 192/2/4 187/2/4 193/2/4
f 193/2/4 187/2/4 194/2/4
f 183/2/4 189/2/4 195/2/4
f 192/2/4 193/2/4 196/2/4
f 191/2/4 192/2/4 196/2/4
f 196/2/4 193/2/4 197/2/4
f 197/2/4 193/2/4 198/2/4
f 183/2/4 195/2/4 199/2/4
f 195/2/4 196/2/4 199/2/4
f 196/2/4 197/2/4 199/2/4
f 199/2/4 197/2/4 200/2/4
f 205/2/5 202/2/5 201/2/5
f 206/2/5 202/2/5 205/2/5
f 207/2/5 204/2/5 203/2/5
f 208/2/5 204/2/5 207/2/5
f 209/1/5 206/1/5 205/1/5
f 209/2/5 205/2/5 201/2/5
f 210/1/5 206/1/5 209/1/5
f 211/1/5 208/1/5 207/1/5
f 212/2/5 204/2/5 208/2/5
f 212/1/5 208/1/5 211/1/5
f 213/2/5 210/2/5 209/2/5
f 213/2/5 209/2/5 201/2/5
f 214/2/5 210/2/5 213/2/5
f 215/2/5 212/2/5 211/2/5
f 216/2/5 204/2/5 212/2/5
f 216/2/5 212/2/5 215/2/5
f 219/3/5 218/3/5 217/3/5
f 220/3/5 218/3/5 219/3/5
f 221/3/5 220/3/5 219/3/5
f 222/3/5 220/3/5 221/3/5
f 223/3/5 222/3/5 221/3/5
f 224/3/5 222/3/5 223/3/5
f 229/2/5 226/2/5 225/2/5
f 230/2/5 226/2/5 229/2/5
f 231/2/5 228/2/5 227/2/5
f 232/2/5 228/2/5 231/2/5
f 237/2/5 234/2/5 233/2/5
f 238/2/5 234/2/5 237/2/5
f 239/2/5 236/2/5 235/2/5
f 240/2/5 236/2/5 239/2/5
f 245/2/5 242/2/5 241/2/5
f 246/2/5 242/2/5 245/2/5
f 247/2/5 244/2/5 243/2/5
f 248/2/5 244/2/5 247/2/5
f 253/2/5 250/2/5 249/2/5
f 254/2/5 250/2/5 253/2/5
f 255/2/5 252/2/5 251/2/5
f 256/2/5 252/2/5 255/2/5
f 259/2/5 258/2/5 257/2/5
f 260/2/5 258/2/5 259/2/5
f 261/2/6 262/2/6 265/2/6
f 265/2/6 262/2/6 266/2/6
f 263/2/6 264/2/6 267/2/6
f 267/2/6 264/2/6 268/2/6
f 269/3/6 270/3/6 271/3/6
f 271/3/6 270/3/6 272/3/6
f 273/2/6 274/2/6 277/2/6
f 277/2/6 274/2/6 278/2/6
f 275/2/6 276/2/6 279/2/6
f 279/2/6 276/2/6 280/2/6
f 281/2/6 282/2/6 285/2/6
f 285/2/6 282/2/6 286/2/6
f 283/2/6 284/2/6 287/2/6
f 287/2/6 284/2/6 288/2/6
f 289/2/6 290/2/6 293/2/6
f 293/2/6 290/2/6 294/2/6
f 291/2/6 292/2/6 295/2/6
f 295/2/6 292/2/6 296/2/6
f 297/2/6 298/2/6 301/2/6
f 301/2/6 298/2/6 302/2/6
f 299/2/6 300/2/6 303/2/6
f 303/2/6 300/2/6 304/2/6
f 305/2/6 306/2/6 307/2/6
f 307/2/6 306/2/6 308/2/6
