# MagicaVoxel @ Ephtracy

# material
mtllib Hyogen Blood.mtl
usemtl palette

# normals
vn -1 0 0
vn 1 0 0
vn 0 0 1
vn 0 0 -1
vn 0 -1 0
vn 0 1 0

# texcoords
vt 0.0175781 0.5
vt 0.0214844 0.5
vt 0.962891 0.5
vt 0.994141 0.5

# verts
v -9 0 6
v -9 0 -8
v -9 1 8
v -9 1 6
v -9 1 5
v -9 1 -7
v -9 1 -8
v -9 1 -10
v -9 2 11
v -9 2 8
v -9 2 7
v -9 2 5
v -9 2 -7
v -9 2 -9
v -9 2 -10
v -9 2 -13
v -9 3 12
v -9 3 11
v -9 3 10
v -9 3 7
v -9 3 -9
v -9 3 -12
v -9 3 -13
v -9 3 -14
v -9 4 11
v -9 4 10
v -9 4 7
v -9 4 3
v -9 4 -5
v -9 4 -9
v -9 4 -12
v -9 4 -13
v -9 5 8
v -9 5 7
v -9 5 -9
v -9 5 -10
v -9 6 13
v -9 6 12
v -9 6 9
v -9 6 8
v -9 6 5
v -9 6 3
v -9 6 -5
v -9 6 -7
v -9 6 -10
v -9 6 -11
v -9 6 -14
v -9 6 -15
v -9 7 12
v -9 7 11
v -9 7 6
v -9 7 5
v -9 7 -7
v -9 7 -8
v -9 7 -13
v -9 7 -14
v -9 8 7
v -9 8 6
v -9 8 -8
v -9 8 -9
v -9 11 12
v -9 11 11
v -9 11 9
v -9 11 7
v -9 11 -9
v -9 11 -11
v -9 11 -13
v -9 11 -14
v -9 12 13
v -9 12 12
v -9 12 -14
v -9 12 -15
v -9 14 11
v -9 14 10
v -9 14 -12
v -9 14 -13
v -9 15 12
v -9 15 11
v -9 15 10
v -9 15 9
v -9 15 -11
v -9 15 -12
v -9 15 -13
v -9 15 -14
v -9 16 11
v -9 16 10
v -9 16 -12
v -9 16 -13
v -9 17 10
v -9 17 9
v -9 17 7
v -9 17 -9
v -9 17 -11
v -9 17 -12
v -9 18 9
v -9 18 8
v -9 18 -10
v -9 18 -11
v -9 19 8
v -9 19 7
v -9 19 6
v -9 19 -8
v -9 19 -9
v -9 19 -10
v -9 20 6
v -9 20 5
v -9 20 -7
v -9 20 -8
v -9 21 7
v -9 21 6
v -9 21 -8
v -9 21 -9
v -9 24 6
v -9 24 5
v -9 24 4
v -9 24 -6
v -9 24 -7
v -9 24 -8
v -9 26 4
v -9 26 3
v -9 26 -5
v -9 26 -6
v -9 27 5
v -9 27 4
v -9 27 -6
v -9 27 -7
v -9 28 2
v -9 28 -0
v -9 30 2
v -9 30 -0
v -9 32 -2
v -9 32 -4
v -9 34 -2
v -9 34 -4
v -9 36 5
v -9 36 4
v -9 36 -3
v -9 36 -5
v -9 36 -6
v -9 36 -7
v -9 37 6
v -9 37 5
v -9 37 3
v -9 37 2
v -9 37 -0
v -9 37 -3
v -9 37 -7
v -9 37 -8
v -9 39 5
v -9 39 2
v -9 39 -0
v -9 39 -7
v -9 40 6
v -9 40 -8
v -9 43 -1
v -9 43 -3
v -9 45 -1
v -9 45 -3
v -5 0 6
v -5 0 -8
v -5 1 8
v -5 1 6
v -5 1 5
v -5 1 -7
v -5 1 -8
v -5 1 -10
v -5 2 11
v -5 2 8
v -5 2 7
v -5 2 5
v -5 2 -7
v -5 2 -9
v -5 2 -10
v -5 2 -13
v -5 3 12
v -5 3 11
v -5 3 10
v -5 3 7
v -5 3 -9
v -5 3 -12
v -5 3 -13
v -5 3 -14
v -5 4 11
v -5 4 10
v -5 4 7
v -5 4 3
v -5 4 -12
v -5 4 -13
v -5 5 8
v -5 5 7
v -5 6 13
v -5 6 12
v -5 6 9
v -5 6 8
v -5 6 5
v -5 6 3
v -5 6 -14
v -5 6 -15
v -5 7 12
v -5 7 11
v -5 7 6
v -5 7 5
v -5 7 -13
v -5 7 -14
v -5 8 7
v -5 8 6
v -5 11 12
v -5 11 11
v -5 11 9
v -5 11 7
v -5 11 -13
v -5 11 -14
v -5 12 13
v -5 12 12
v -5 12 -14
v -5 12 -15
v -5 14 11
v -5 14 10
v -5 14 -12
v -5 14 -13
v -5 15 12
v -5 15 11
v -5 15 10
v -5 15 9
v -5 15 -11
v -5 15 -12
v -5 15 -13
v -5 15 -14
v -5 16 11
v -5 16 10
v -5 16 -12
v -5 16 -13
v -5 17 10
v -5 17 9
v -5 17 7
v -5 17 -9
v -5 17 -11
v -5 17 -12
v -5 18 9
v -5 18 8
v -5 18 -10
v -5 18 -11
v -5 19 8
v -5 19 7
v -5 19 6
v -5 19 -8
v -5 19 -9
v -5 19 -10
v -5 20 6
v -5 20 5
v -5 20 -7
v -5 20 -8
v -5 21 7
v -5 21 6
v -5 21 -8
v -5 21 -9
v -5 24 6
v -5 24 5
v -5 24 4
v -5 24 -6
v -5 24 -7
v -5 24 -8
v -5 26 4
v -5 26 3
v -5 26 -5
v -5 26 -6
v -5 27 5
v -5 27 4
v -5 27 -6
v -5 27 -7
v -5 28 2
v -5 28 -0
v -5 30 2
v -5 30 -0
v -5 32 -2
v -5 32 -4
v -5 34 -2
v -5 34 -4
v -5 36 5
v -5 36 4
v -5 36 -3
v -5 36 -5
v -5 36 -6
v -5 36 -7
v -5 37 6
v -5 37 5
v -5 37 3
v -5 37 2
v -5 37 -0
v -5 37 -3
v -5 37 -7
v -5 37 -8
v -5 39 5
v -5 39 2
v -5 39 -0
v -5 39 -7
v -5 40 6
v -5 40 -8
v -5 43 -1
v -5 43 -3
v -5 45 -1
v -5 45 -3
v -9 6 13
v -9 12 13
v -5 6 13
v -5 12 13
v -9 3 12
v -9 6 12
v -9 12 12
v -9 15 12
v -5 3 12
v -5 6 12
v -5 12 12
v -5 15 12
v -9 2 11
v -9 3 11
v -9 15 11
v -9 16 11
v -5 2 11
v -5 3 11
v -5 15 11
v -5 16 11
v -9 16 10
v -9 17 10
v -5 16 10
v -5 17 10
v -9 17 9
v -9 18 9
v -5 17 9
v -5 18 9
v -9 1 8
v -9 2 8
v -9 18 8
v -9 19 8
v -5 1 8
v -5 2 8
v -5 18 8
v -5 19 8
v -9 19 7
v -9 21 7
v -5 19 7
v -5 21 7
v -9 0 6
v -9 1 6
v -9 21 6
v -9 24 6
v -9 37 6
v -9 40 6
v -5 0 6
v -5 1 6
v -5 21 6
v -5 24 6
v -5 37 6
v -5 40 6
v -9 24 5
v -9 27 5
v -9 36 5
v -9 37 5
v -5 24 5
v -5 27 5
v -5 36 5
v -5 37 5
v -9 27 4
v -9 36 4
v -5 27 4
v -5 36 4
v -9 28 2
v -9 30 2
v -9 37 2
v -9 39 2
v -5 28 2
v -5 30 2
v -5 37 2
v -5 39 2
v -9 43 -1
v -9 45 -1
v -5 43 -1
v -5 45 -1
v -9 32 -2
v -9 34 -2
v -5 32 -2
v -5 34 -2
v -9 36 -3
v -9 37 -3
v -5 36 -3
v -5 37 -3
v -9 26 -5
v -9 36 -5
v -5 26 -5
v -5 36 -5
v -9 37 -7
v -9 39 -7
v -5 37 -7
v -5 39 -7
v -9 37 5
v -9 39 5
v -5 37 5
v -5 39 5
v -9 26 3
v -9 37 3
v -5 26 3
v -5 37 3
v -9 28 -0
v -9 30 -0
v -9 37 -0
v -9 39 -0
v -5 28 -0
v -5 30 -0
v -5 37 -0
v -5 39 -0
v -9 43 -3
v -9 45 -3
v -5 43 -3
v -5 45 -3
v -9 32 -4
v -9 34 -4
v -5 32 -4
v -5 34 -4
v -9 27 -6
v -9 36 -6
v -5 27 -6
v -5 36 -6
v -9 24 -7
v -9 27 -7
v -9 36 -7
v -9 37 -7
v -5 24 -7
v -5 27 -7
v -5 36 -7
v -5 37 -7
v -9 0 -8
v -9 1 -8
v -9 21 -8
v -9 24 -8
v -9 37 -8
v -9 40 -8
v -5 0 -8
v -5 1 -8
v -5 21 -8
v -5 24 -8
v -5 37 -8
v -5 40 -8
v -9 19 -9
v -9 21 -9
v -5 19 -9
v -5 21 -9
v -9 1 -10
v -9 2 -10
v -9 18 -10
v -9 19 -10
v -5 1 -10
v -5 2 -10
v -5 18 -10
v -5 19 -10
v -9 17 -11
v -9 18 -11
v -5 17 -11
v -5 18 -11
v -9 16 -12
v -9 17 -12
v -5 16 -12
v -5 17 -12
v -9 2 -13
v -9 3 -13
v -9 15 -13
v -9 16 -13
v -5 2 -13
v -5 3 -13
v -5 15 -13
v -5 16 -13
v -9 3 -14
v -9 6 -14
v -9 12 -14
v -9 15 -14
v -5 3 -14
v -5 6 -14
v -5 12 -14
v -5 15 -14
v -9 6 -15
v -9 12 -15
v -5 6 -15
v -5 12 -15
v -9 0 6
v -5 0 6
v -9 0 -8
v -5 0 -8
v -9 1 8
v -5 1 8
v -9 1 6
v -5 1 6
v -9 1 -8
v -5 1 -8
v -9 1 -10
v -5 1 -10
v -9 2 11
v -5 2 11
v -9 2 8
v -5 2 8
v -9 2 -10
v -5 2 -10
v -9 2 -13
v -5 2 -13
v -9 3 12
v -5 3 12
v -9 3 11
v -5 3 11
v -9 3 -13
v -5 3 -13
v -9 3 -14
v -5 3 -14
v -9 6 13
v -5 6 13
v -9 6 12
v -5 6 12
v -9 6 -14
v -5 6 -14
v -9 6 -15
v -5 6 -15
v -9 28 2
v -5 28 2
v -9 28 -0
v -5 28 -0
v -9 32 -2
v -5 32 -2
v -9 32 -4
v -5 32 -4
v -9 36 5
v -5 36 5
v -9 36 4
v -5 36 4
v -9 36 -3
v -5 36 -3
v -9 36 -5
v -5 36 -5
v -9 36 -6
v -5 36 -6
v -9 36 -7
v -5 36 -7
v -9 37 6
v -5 37 6
v -9 37 5
v -5 37 5
v -9 37 2
v -5 37 2
v -9 37 -0
v -5 37 -0
v -9 37 -7
v -5 37 -7
v -9 37 -8
v -5 37 -8
v -9 39 5
v -5 39 5
v -9 39 2
v -5 39 2
v -9 39 -0
v -5 39 -0
v -9 39 -7
v -5 39 -7
v -9 43 -1
v -5 43 -1
v -9 43 -3
v -5 43 -3
v -9 12 13
v -5 12 13
v -9 12 12
v -5 12 12
v -9 12 -14
v -5 12 -14
v -9 12 -15
v -5 12 -15
v -9 15 12
v -5 15 12
v -9 15 11
v -5 15 11
v -9 15 -13
v -5 15 -13
v -9 15 -14
v -5 15 -14
v -9 16 11
v -5 16 11
v -9 16 10
v -5 16 10
v -9 16 -12
v -5 16 -12
v -9 16 -13
v -5 16 -13
v -9 17 10
v -5 17 10
v -9 17 9
v -5 17 9
v -9 17 -11
v -5 17 -11
v -9 17 -12
v -5 17 -12
v -9 18 9
v -5 18 9
v -9 18 8
v -5 18 8
v -9 18 -10
v -5 18 -10
v -9 18 -11
v -5 18 -11
v -9 19 8
v -5 19 8
v -9 19 7
v -5 19 7
v -9 19 -9
v -5 19 -9
v -9 19 -10
v -5 19 -10
v -9 21 7
v -5 21 7
v -9 21 6
v -5 21 6
v -9 21 -8
v -5 21 -8
v -9 21 -9
v -5 21 -9
v -9 24 6
v -5 24 6
v -9 24 5
v -5 24 5
v -9 24 -7
v -5 24 -7
v -9 24 -8
v -5 24 -8
v -9 26 3
v -5 26 3
v -9 26 -5
v -5 26 -5
v -9 27 5
v -5 27 5
v -9 27 4
v -5 27 4
v -9 27 -6
v -5 27 -6
v -9 27 -7
v -5 27 -7
v -9 30 2
v -5 30 2
v -9 30 -0
v -5 30 -0
v -9 34 -2
v -5 34 -2
v -9 34 -4
v -5 34 -4
v -9 37 5
v -5 37 5
v -9 37 3
v -5 37 3
v -9 37 -3
v -5 37 -3
v -9 37 -7
v -5 37 -7
v -9 40 6
v -5 40 6
v -9 40 -8
v -5 40 -8
v -9 45 -1
v -5 45 -1
v -9 45 -3
v -5 45 -3

# faces
f 4/4/1 2/4/1 1/4/1
f 5/4/1 2/4/1 4/4/1
f 6/4/1 2/4/1 5/4/1
f 7/4/1 2/4/1 6/4/1
f 10/4/1 4/4/1 3/4/1
f 10/4/1 5/4/1 4/4/1
f 11/4/1 5/4/1 10/4/1
f 12/1/1 6/1/1 5/1/1
f 12/4/1 5/4/1 11/4/1
f 13/4/1 8/4/1 7/4/1
f 13/1/1 6/1/1 12/1/1
f 13/4/1 7/4/1 6/4/1
f 14/4/1 8/4/1 13/4/1
f 15/4/1 8/4/1 14/4/1
f 18/4/1 10/4/1 9/4/1
f 18/4/1 11/4/1 10/4/1
f 19/4/1 11/4/1 18/4/1
f 20/1/1 12/1/1 11/1/1
f 20/4/1 11/4/1 19/4/1
f 20/1/1 13/1/1 12/1/1
f 20/1/1 14/1/1 13/1/1
f 21/4/1 16/4/1 15/4/1
f 21/1/1 14/1/1 20/1/1
f 21/4/1 15/4/1 14/4/1
f 22/4/1 16/4/1 21/4/1
f 23/4/1 16/4/1 22/4/1
f 25/4/1 19/4/1 18/4/1
f 25/4/1 18/4/1 17/4/1
f 26/1/1 20/1/1 19/1/1
f 26/4/1 19/4/1 25/4/1
f 26/1/1 21/1/1 20/1/1
f 26/1/1 22/1/1 21/1/1
f 27/1/1 22/1/1 26/1/1
f 28/1/1 22/1/1 27/1/1
f 29/1/1 22/1/1 28/1/1
f 30/1/1 22/1/1 29/1/1
f 31/4/1 24/4/1 23/4/1
f 31/1/1 22/1/1 30/1/1
f 31/4/1 23/4/1 22/4/1
f 32/4/1 24/4/1 31/4/1
f 33/1/1 26/1/1 25/1/1
f 33/1/1 27/1/1 26/1/1
f 34/2/1 28/2/1 27/2/1
f 34/1/1 27/1/1 33/1/1
f 35/3/1 30/3/1 29/3/1
f 35/1/1 32/1/1 31/1/1
f 35/1/1 31/1/1 30/1/1
f 36/1/1 32/1/1 35/1/1
f 38/4/1 25/4/1 17/4/1
f 39/1/1 33/1/1 25/1/1
f 40/2/1 34/2/1 33/2/1
f 40/1/1 33/1/1 39/1/1
f 41/2/1 28/2/1 34/2/1
f 41/2/1 34/2/1 40/2/1
f 42/1/1 29/1/1 28/1/1
f 42/2/1 28/2/1 41/2/1
f 43/3/1 35/3/1 29/3/1
f 43/1/1 29/1/1 42/1/1
f 43/3/1 36/3/1 35/3/1
f 44/3/1 36/3/1 43/3/1
f 45/1/1 32/1/1 36/1/1
f 45/3/1 36/3/1 44/3/1
f 46/1/1 32/1/1 45/1/1
f 47/4/1 24/4/1 32/4/1
f 49/4/1 38/4/1 37/4/1
f 49/4/1 25/4/1 38/4/1
f 50/1/1 39/1/1 25/1/1
f 50/4/1 25/4/1 49/4/1
f 51/2/1 40/2/1 39/2/1
f 51/2/1 41/2/1 40/2/1
f 52/1/1 44/1/1 43/1/1
f 52/2/1 41/2/1 51/2/1
f 52/1/1 42/1/1 41/1/1
f 52/1/1 43/1/1 42/1/1
f 53/3/1 46/3/1 45/3/1
f 53/1/1 44/1/1 52/1/1
f 53/3/1 45/3/1 44/3/1
f 54/3/1 46/3/1 53/3/1
f 55/1/1 32/1/1 46/1/1
f 55/4/1 48/4/1 47/4/1
f 55/4/1 47/4/1 32/4/1
f 56/4/1 48/4/1 55/4/1
f 57/2/1 51/2/1 39/2/1
f 58/1/1 54/1/1 53/1/1
f 58/2/1 51/2/1 57/2/1
f 58/1/1 52/1/1 51/1/1
f 58/1/1 53/1/1 52/1/1
f 59/3/1 46/3/1 54/3/1
f 59/1/1 54/1/1 58/1/1
f 60/3/1 46/3/1 59/3/1
f 61/1/1 50/1/1 49/1/1
f 61/4/1 49/4/1 37/4/1
f 62/1/1 39/1/1 50/1/1
f 62/1/1 50/1/1 61/1/1
f 63/2/1 57/2/1 39/2/1
f 63/1/1 39/1/1 62/1/1
f 64/1/1 58/1/1 57/1/1
f 64/2/1 57/2/1 63/2/1
f 64/1/1 60/1/1 59/1/1
f 64/1/1 59/1/1 58/1/1
f 65/3/1 46/3/1 60/3/1
f 65/1/1 60/1/1 64/1/1
f 66/1/1 56/1/1 55/1/1
f 66/3/1 46/3/1 65/3/1
f 66/1/1 55/1/1 46/1/1
f 67/1/1 56/1/1 66/1/1
f 68/4/1 48/4/1 56/4/1
f 68/1/1 56/1/1 67/1/1
f 69/4/1 61/4/1 37/4/1
f 69/4/1 62/4/1 61/4/1
f 70/4/1 62/4/1 69/4/1
f 71/4/1 48/4/1 68/4/1
f 71/4/1 68/4/1 67/4/1
f 72/4/1 48/4/1 71/4/1
f 73/4/1 62/4/1 70/4/1
f 73/1/1 67/1/1 66/1/1
f 73/1/1 64/1/1 63/1/1
f 73/1/1 63/1/1 62/1/1
f 73/1/1 66/1/1 65/1/1
f 73/1/1 65/1/1 64/1/1
f 74/1/1 67/1/1 73/1/1
f 75/1/1 67/1/1 74/1/1
f 76/4/1 71/4/1 67/4/1
f 76/1/1 67/1/1 75/1/1
f 77/4/1 73/4/1 70/4/1
f 77/4/1 74/4/1 73/4/1
f 78/4/1 74/4/1 77/4/1
f 79/1/1 75/1/1 74/1/1
f 79/4/1 74/4/1 78/4/1
f 80/1/1 75/1/1 79/1/1
f 81/1/1 75/1/1 80/1/1
f 82/4/1 76/4/1 75/4/1
f 82/1/1 75/1/1 81/1/1
f 83/4/1 71/4/1 76/4/1
f 83/4/1 76/4/1 82/4/1
f 84/4/1 71/4/1 83/4/1
f 85/4/1 79/4/1 78/4/1
f 85/4/1 80/4/1 79/4/1
f 86/4/1 80/4/1 85/4/1
f 87/4/1 82/4/1 81/4/1
f 87/4/1 83/4/1 82/4/1
f 88/4/1 83/4/1 87/4/1
f 89/4/1 80/4/1 86/4/1
f 90/1/1 81/1/1 80/1/1
f 90/4/1 80/4/1 89/4/1
f 91/1/1 81/1/1 90/1/1
f 92/1/1 81/1/1 91/1/1
f 93/4/1 87/4/1 81/4/1
f 93/1/1 81/1/1 92/1/1
f 94/4/1 87/4/1 93/4/1
f 95/4/1 91/4/1 90/4/1
f 96/4/1 91/4/1 95/4/1
f 97/4/1 93/4/1 92/4/1
f 98/4/1 93/4/1 97/4/1
f 99/4/1 91/4/1 96/4/1
f 100/1/1 92/1/1 91/1/1
f 100/4/1 91/4/1 99/4/1
f 101/1/1 92/1/1 100/1/1
f 102/1/1 92/1/1 101/1/1
f 103/4/1 97/4/1 92/4/1
f 103/1/1 92/1/1 102/1/1
f 104/4/1 97/4/1 103/4/1
f 105/1/1 102/1/1 101/1/1
f 105/4/1 101/4/1 100/4/1
f 106/1/1 102/1/1 105/1/1
f 107/1/1 102/1/1 106/1/1
f 108/4/1 103/4/1 102/4/1
f 108/1/1 102/1/1 107/1/1
f 109/4/1 105/4/1 100/4/1
f 109/4/1 106/4/1 105/4/1
f 110/4/1 106/4/1 109/4/1
f 111/4/1 103/4/1 108/4/1
f 111/4/1 108/4/1 107/4/1
f 112/4/1 103/4/1 111/4/1
f 113/4/1 106/4/1 110/4/1
f 114/1/1 107/1/1 106/1/1
f 114/4/1 106/4/1 113/4/1
f 115/1/1 107/1/1 114/1/1
f 116/1/1 107/1/1 115/1/1
f 117/4/1 111/4/1 107/4/1
f 117/1/1 107/1/1 116/1/1
f 118/4/1 111/4/1 117/4/1
f 119/1/1 116/1/1 115/1/1
f 119/4/1 115/4/1 114/4/1
f 120/1/1 116/1/1 119/1/1
f 121/1/1 116/1/1 120/1/1
f 122/4/1 117/4/1 116/4/1
f 122/1/1 116/1/1 121/1/1
f 123/4/1 119/4/1 114/4/1
f 123/4/1 120/4/1 119/4/1
f 124/4/1 120/4/1 123/4/1
f 125/4/1 117/4/1 122/4/1
f 125/4/1 122/4/1 121/4/1
f 126/4/1 117/4/1 125/4/1
f 129/2/1 128/2/1 127/2/1
f 130/2/1 128/2/1 129/2/1
f 133/2/1 132/2/1 131/2/1
f 134/2/1 132/2/1 133/2/1
f 136/4/1 120/4/1 124/4/1
f 138/4/1 125/4/1 121/4/1
f 139/4/1 125/4/1 138/4/1
f 142/4/1 136/4/1 135/4/1
f 143/4/1 120/4/1 136/4/1
f 143/4/1 136/4/1 142/4/1
f 146/4/1 140/4/1 139/4/1
f 146/4/1 138/4/1 137/4/1
f 146/4/1 139/4/1 138/4/1
f 147/4/1 140/4/1 146/4/1
f 149/4/1 142/4/1 141/4/1
f 150/2/1 145/2/1 144/2/1
f 151/2/1 145/2/1 150/2/1
f 152/4/1 148/4/1 147/4/1
f 153/4/1 149/4/1 141/4/1
f 153/4/1 152/4/1 151/4/1
f 153/4/1 151/4/1 150/4/1
f 153/4/1 150/4/1 149/4/1
f 154/4/1 148/4/1 152/4/1
f 154/4/1 152/4/1 153/4/1
f 157/2/1 156/2/1 155/2/1
f 158/2/1 156/2/1 157/2/1
f 159/4/2 160/4/2 162/4/2
f 162/4/2 160/4/2 163/4/2
f 163/4/2 160/4/2 164/4/2
f 164/4/2 160/4/2 165/4/2
f 161/4/2 162/4/2 168/4/2
f 162/4/2 163/4/2 168/4/2
f 168/4/2 163/4/2 169/4/2
f 163/1/2 164/1/2 170/1/2
f 169/4/2 163/4/2 170/4/2
f 165/4/2 166/4/2 171/4/2
f 170/1/2 164/1/2 171/1/2
f 164/4/2 165/4/2 171/4/2
f 171/4/2 166/4/2 172/4/2
f 172/4/2 166/4/2 173/4/2
f 167/4/2 168/4/2 176/4/2
f 168/4/2 169/4/2 176/4/2
f 176/4/2 169/4/2 177/4/2
f 169/1/2 170/1/2 178/1/2
f 177/4/2 169/4/2 178/4/2
f 170/1/2 171/1/2 178/1/2
f 171/1/2 172/1/2 178/1/2
f 173/4/2 174/4/2 179/4/2
f 178/1/2 172/1/2 179/1/2
f 172/4/2 173/4/2 179/4/2
f 179/4/2 174/4/2 180/4/2
f 180/4/2 174/4/2 181/4/2
f 176/4/2 177/4/2 183/4/2
f 175/4/2 176/4/2 183/4/2
f 177/1/2 178/1/2 184/1/2
f 183/4/2 177/4/2 184/4/2
f 178/1/2 179/1/2 184/1/2
f 179/1/2 180/1/2 184/1/2
f 184/1/2 180/1/2 185/1/2
f 185/1/2 180/1/2 186/1/2
f 181/4/2 182/4/2 187/4/2
f 186/1/2 180/1/2 187/1/2
f 180/4/2 181/4/2 187/4/2
f 187/4/2 182/4/2 188/4/2
f 184/1/2 185/1/2 189/1/2
f 183/1/2 184/1/2 189/1/2
f 185/3/2 186/3/2 190/3/2
f 189/1/2 185/1/2 190/1/2
f 175/4/2 183/4/2 192/4/2
f 183/1/2 189/1/2 193/1/2
f 189/3/2 190/3/2 194/3/2
f 193/1/2 189/1/2 194/1/2
f 190/3/2 186/3/2 195/3/2
f 194/3/2 190/3/2 195/3/2
f 187/1/2 188/1/2 196/1/2
f 195/3/2 186/3/2 196/3/2
f 186/1/2 187/1/2 196/1/2
f 188/4/2 182/4/2 197/4/2
f 191/4/2 192/4/2 199/4/2
f 192/4/2 183/4/2 199/4/2
f 183/1/2 193/1/2 200/1/2
f 199/4/2 183/4/2 200/4/2
f 193/3/2 194/3/2 201/3/2
f 194/3/2 195/3/2 201/3/2
f 195/1/2 196/1/2 202/1/2
f 201/3/2 195/3/2 202/3/2
f 197/4/2 198/4/2 203/4/2
f 202/1/2 196/1/2 203/1/2
f 196/1/2 188/1/2 203/1/2
f 188/4/2 197/4/2 203/4/2
f 203/4/2 198/4/2 204/4/2
f 193/3/2 201/3/2 205/3/2
f 201/1/2 202/1/2 206/1/2
f 205/3/2 201/3/2 206/3/2
f 202/1/2 203/1/2 206/1/2
f 203/1/2 204/1/2 206/1/2
f 199/1/2 200/1/2 207/1/2
f 191/4/2 199/4/2 207/4/2
f 200/1/2 193/1/2 208/1/2
f 207/1/2 200/1/2 208/1/2
f 193/3/2 205/3/2 209/3/2
f 208/1/2 193/1/2 209/1/2
f 205/1/2 206/1/2 210/1/2
f 209/3/2 205/3/2 210/3/2
f 206/1/2 204/1/2 211/1/2
f 210/1/2 206/1/2 211/1/2
f 204/4/2 198/4/2 212/4/2
f 211/1/2 204/1/2 212/1/2
f 207/4/2 208/4/2 213/4/2
f 191/4/2 207/4/2 213/4/2
f 213/4/2 208/4/2 214/4/2
f 212/4/2 198/4/2 215/4/2
f 211/4/2 212/4/2 215/4/2
f 215/4/2 198/4/2 216/4/2
f 214/4/2 208/4/2 217/4/2
f 210/1/2 211/1/2 217/1/2
f 209/1/2 210/1/2 217/1/2
f 208/1/2 209/1/2 217/1/2
f 217/1/2 211/1/2 218/1/2
f 218/1/2 211/1/2 219/1/2
f 211/4/2 215/4/2 220/4/2
f 219/1/2 211/1/2 220/1/2
f 214/4/2 217/4/2 221/4/2
f 217/4/2 218/4/2 221/4/2
f 221/4/2 218/4/2 222/4/2
f 218/1/2 219/1/2 223/1/2
f 222/4/2 218/4/2 223/4/2
f 223/1/2 219/1/2 224/1/2
f 224/1/2 219/1/2 225/1/2
f 219/4/2 220/4/2 226/4/2
f 225/1/2 219/1/2 226/1/2
f 220/4/2 215/4/2 227/4/2
f 226/4/2 220/4/2 227/4/2
f 227/4/2 215/4/2 228/4/2
f 222/4/2 223/4/2 229/4/2
f 223/4/2 224/4/2 229/4/2
f 229/4/2 224/4/2 230/4/2
f 225/4/2 226/4/2 231/4/2
f 226/4/2 227/4/2 231/4/2
f 231/4/2 227/4/2 232/4/2
f 230/4/2 224/4/2 233/4/2
f 224/1/2 225/1/2 234/1/2
f 233/4/2 224/4/2 234/4/2
f 234/1/2 225/1/2 235/1/2
f 235/1/2 225/1/2 236/1/2
f 225/4/2 231/4/2 237/4/2
f 236/1/2 225/1/2 237/1/2
f 237/4/2 231/4/2 238/4/2
f 234/4/2 235/4/2 239/4/2
f 239/4/2 235/4/2 240/4/2
f 236/4/2 237/4/2 241/4/2
f 241/4/2 237/4/2 242/4/2
f 240/4/2 235/4/2 243/4/2
f 235/1/2 236/1/2 244/1/2
f 243/4/2 235/4/2 244/4/2
f 244/1/2 236/1/2 245/1/2
f 245/1/2 236/1/2 246/1/2
f 236/4/2 241/4/2 247/4/2
f 246/1/2 236/1/2 247/1/2
f 247/4/2 241/4/2 248/4/2
f 245/1/2 246/1/2 249/1/2
f 244/4/2 245/4/2 249/4/2
f 249/1/2 246/1/2 250/1/2
f 250/1/2 246/1/2 251/1/2
f 246/4/2 247/4/2 252/4/2
f 251/1/2 246/1/2 252/1/2
f 244/4/2 249/4/2 253/4/2
f 249/4/2 250/4/2 253/4/2
f 253/4/2 250/4/2 254/4/2
f 252/4/2 247/4/2 255/4/2
f 251/4/2 252/4/2 255/4/2
f 255/4/2 247/4/2 256/4/2
f 254/4/2 250/4/2 257/4/2
f 250/1/2 251/1/2 258/1/2
f 257/4/2 250/4/2 258/4/2
f 258/1/2 251/1/2 259/1/2
f 259/1/2 251/1/2 260/1/2
f 251/4/2 255/4/2 261/4/2
f 260/1/2 251/1/2 261/1/2
f 261/4/2 255/4/2 262/4/2
f 259/1/2 260/1/2 263/1/2
f 258/4/2 259/4/2 263/4/2
f 263/1/2 260/1/2 264/1/2
f 264/1/2 260/1/2 265/1/2
f 260/4/2 261/4/2 266/4/2
f 265/1/2 260/1/2 266/1/2
f 258/4/2 263/4/2 267/4/2
f 263/4/2 264/4/2 267/4/2
f 267/4/2 264/4/2 268/4/2
f 266/4/2 261/4/2 269/4/2
f 265/4/2 266/4/2 269/4/2
f 269/4/2 261/4/2 270/4/2
f 271/2/2 272/2/2 273/2/2
f 273/2/2 272/2/2 274/2/2
f 275/2/2 276/2/2 277/2/2
f 277/2/2 276/2/2 278/2/2
f 268/4/2 264/4/2 280/4/2
f 265/4/2 269/4/2 282/4/2
f 282/4/2 269/4/2 283/4/2
f 279/4/2 280/4/2 286/4/2
f 280/4/2 264/4/2 287/4/2
f 286/4/2 280/4/2 287/4/2
f 283/4/2 284/4/2 290/4/2
f 281/4/2 282/4/2 290/4/2
f 282/4/2 283/4/2 290/4/2
f 290/4/2 284/4/2 291/4/2
f 285/4/2 286/4/2 293/4/2
f 288/2/2 289/2/2 294/2/2
f 294/2/2 289/2/2 295/2/2
f 291/4/2 292/4/2 296/4/2
f 285/4/2 293/4/2 297/4/2
f 295/4/2 296/4/2 297/4/2
f 294/4/2 295/4/2 297/4/2
f 293/4/2 294/4/2 297/4/2
f 296/4/2 292/4/2 298/4/2
f 297/4/2 296/4/2 298/4/2
f 299/2/2 300/2/2 301/2/2
f 301/2/2 300/2/2 302/2/2
f 305/4/3 304/4/3 303/4/3
f 306/4/3 304/4/3 305/4/3
f 311/4/3 308/4/3 307/4/3
f 312/4/3 308/4/3 311/4/3
f 313/4/3 310/4/3 309/4/3
f 314/4/3 310/4/3 313/4/3
f 319/4/3 316/4/3 315/4/3
f 320/4/3 316/4/3 319/4/3
f 321/4/3 318/4/3 317/4/3
f 322/4/3 318/4/3 321/4/3
f 325/4/3 324/4/3 323/4/3
f 326/4/3 324/4/3 325/4/3
f 329/4/3 328/4/3 327/4/3
f 330/4/3 328/4/3 329/4/3
f 335/4/3 332/4/3 331/4/3
f 336/4/3 332/4/3 335/4/3
f 337/4/3 334/4/3 333/4/3
f 338/4/3 334/4/3 337/4/3
f 341/4/3 340/4/3 339/4/3
f 342/4/3 340/4/3 341/4/3
f 349/4/3 344/4/3 343/4/3
f 350/4/3 344/4/3 349/4/3
f 351/4/3 346/4/3 345/4/3
f 352/4/3 346/4/3 351/4/3
f 353/4/3 348/4/3 347/4/3
f 354/4/3 348/4/3 353/4/3
f 359/4/3 356/4/3 355/4/3
f 360/4/3 356/4/3 359/4/3
f 361/4/3 358/4/3 357/4/3
f 362/4/3 358/4/3 361/4/3
f 365/4/3 364/4/3 363/4/3
f 366/4/3 364/4/3 365/4/3
f 371/2/3 368/2/3 367/2/3
f 372/2/3 368/2/3 371/2/3
f 373/2/3 370/2/3 369/2/3
f 374/2/3 370/2/3 373/2/3
f 377/2/3 376/2/3 375/2/3
f 378/2/3 376/2/3 377/2/3
f 381/2/3 380/2/3 379/2/3
f 382/2/3 380/2/3 381/2/3
f 385/4/3 384/4/3 383/4/3
f 386/4/3 384/4/3 385/4/3
f 389/4/3 388/4/3 387/4/3
f 390/4/3 388/4/3 389/4/3
f 393/4/3 392/4/3 391/4/3
f 394/4/3 392/4/3 393/4/3
f 395/4/4 396/4/4 397/4/4
f 397/4/4 396/4/4 398/4/4
f 399/4/4 400/4/4 401/4/4
f 401/4/4 400/4/4 402/4/4
f 403/2/4 404/2/4 407/2/4
f 407/2/4 404/2/4 408/2/4
f 405/2/4 406/2/4 409/2/4
f 409/2/4 406/2/4 410/2/4
f 411/2/4 412/2/4 413/2/4
f 413/2/4 412/2/4 414/2/4
f 415/2/4 416/2/4 417/2/4
f 417/2/4 416/2/4 418/2/4
f 419/4/4 420/4/4 421/4/4
f 421/4/4 420/4/4 422/4/4
f 423/4/4 424/4/4 427/4/4
f 427/4/4 424/4/4 428/4/4
f 425/4/4 426/4/4 429/4/4
f 429/4/4 426/4/4 430/4/4
f 431/4/4 432/4/4 437/4/4
f 437/4/4 432/4/4 438/4/4
f 433/4/4 434/4/4 439/4/4
f 439/4/4 434/4/4 440/4/4
f 435/4/4 436/4/4 441/4/4
f 441/4/4 436/4/4 442/4/4
f 443/4/4 444/4/4 445/4/4
f 445/4/4 444/4/4 446/4/4
f 447/4/4 448/4/4 451/4/4
f 451/4/4 448/4/4 452/4/4
f 449/4/4 450/4/4 453/4/4
f 453/4/4 450/4/4 454/4/4
f 455/4/4 456/4/4 457/4/4
f 457/4/4 456/4/4 458/4/4
f 459/4/4 460/4/4 461/4/4
f 461/4/4 460/4/4 462/4/4
f 463/4/4 464/4/4 467/4/4
f 467/4/4 464/4/4 468/4/4
f 465/4/4 466/4/4 469/4/4
f 469/4/4 466/4/4 470/4/4
f 471/4/4 472/4/4 475/4/4
f 475/4/4 472/4/4 476/4/4
f 473/4/4 474/4/4 477/4/4
f 477/4/4 474/4/4 478/4/4
f 479/4/4 480/4/4 481/4/4
f 481/4/4 480/4/4 482/4/4
f 485/4/5 484/4/5 483/4/5
f 486/4/5 484/4/5 485/4/5
f 489/4/5 488/4/5 487/4/5
f 490/4/5 488/4/5 489/4/5
f 493/4/5 492/4/5 491/4/5
f 494/4/5 492/4/5 493/4/5
f 497/4/5 496/4/5 495/4/5
f 498/4/5 496/4/5 497/4/5
f 501/4/5 500/4/5 499/4/5
f 502/4/5 500/4/5 501/4/5
f 505/4/5 504/4/5 503/4/5
f 506/4/5 504/4/5 505/4/5
f 509/4/5 508/4/5 507/4/5
f 510/4/5 508/4/5 509/4/5
f 513/4/5 512/4/5 511/4/5
f 514/4/5 512/4/5 513/4/5
f 517/4/5 516/4/5 515/4/5
f 518/4/5 516/4/5 517/4/5
f 521/2/5 520/2/5 519/2/5
f 522/2/5 520/2/5 521/2/5
f 525/2/5 524/2/5 523/2/5
f 526/2/5 524/2/5 525/2/5
f 529/4/5 528/4/5 527/4/5
f 530/4/5 528/4/5 529/4/5
f 533/4/5 532/4/5 531/4/5
f 534/4/5 532/4/5 533/4/5
f 537/4/5 536/4/5 535/4/5
f 538/4/5 536/4/5 537/4/5
f 541/4/5 540/4/5 539/4/5
f 542/4/5 540/4/5 541/4/5
f 545/2/5 544/2/5 543/2/5
f 546/2/5 544/2/5 545/2/5
f 549/4/5 548/4/5 547/4/5
f 550/4/5 548/4/5 549/4/5
f 553/4/5 552/4/5 551/4/5
f 554/4/5 552/4/5 553/4/5
f 557/4/5 556/4/5 555/4/5
f 558/4/5 556/4/5 557/4/5
f 561/2/5 560/2/5 559/2/5
f 562/2/5 560/2/5 561/2/5
f 563/4/6 564/4/6 565/4/6
f 565/4/6 564/4/6 566/4/6
f 567/4/6 568/4/6 569/4/6
f 569/4/6 568/4/6 570/4/6
f 571/4/6 572/4/6 573/4/6
f 573/4/6 572/4/6 574/4/6
f 575/4/6 576/4/6 577/4/6
f 577/4/6 576/4/6 578/4/6
f 579/4/6 580/4/6 581/4/6
f 581/4/6 580/4/6 582/4/6
f 583/4/6 584/4/6 585/4/6
f 585/4/6 584/4/6 586/4/6
f 587/4/6 588/4/6 589/4/6
f 589/4/6 588/4/6 590/4/6
f 591/4/6 592/4/6 593/4/6
f 593/4/6 592/4/6 594/4/6
f 595/4/6 596/4/6 597/4/6
f 597/4/6 596/4/6 598/4/6
f 599/4/6 600/4/6 601/4/6
f 601/4/6 600/4/6 602/4/6
f 603/4/6 604/4/6 605/4/6
f 605/4/6 604/4/6 606/4/6
f 607/4/6 608/4/6 609/4/6
f 609/4/6 608/4/6 610/4/6
f 611/4/6 612/4/6 613/4/6
f 613/4/6 612/4/6 614/4/6
f 615/4/6 616/4/6 617/4/6
f 617/4/6 616/4/6 618/4/6
f 619/4/6 620/4/6 621/4/6
f 621/4/6 620/4/6 622/4/6
f 623/4/6 624/4/6 625/4/6
f 625/4/6 624/4/6 626/4/6
f 627/1/6 628/1/6 629/1/6
f 629/1/6 628/1/6 630/1/6
f 631/4/6 632/4/6 633/4/6
f 633/4/6 632/4/6 634/4/6
f 635/4/6 636/4/6 637/4/6
f 637/4/6 636/4/6 638/4/6
f 639/2/6 640/2/6 641/2/6
f 641/2/6 640/2/6 642/2/6
f 643/2/6 644/2/6 645/2/6
f 645/2/6 644/2/6 646/2/6
f 647/4/6 648/4/6 649/4/6
f 649/4/6 648/4/6 650/4/6
f 651/4/6 652/4/6 653/4/6
f 653/4/6 652/4/6 654/4/6
f 655/4/6 656/4/6 657/4/6
f 657/4/6 656/4/6 658/4/6
f 659/2/6 660/2/6 661/2/6
f 661/2/6 660/2/6 662/2/6
