# MagicaVoxel @ Ephtracy

# material
mtllib Basic Tunnel.mtl
usemtl palette

# normals
vn -1 0 0
vn 1 0 0
vn 0 0 1
vn 0 0 -1
vn 0 -1 0
vn 0 1 0

# texcoords
vt 0.958984 0.5
vt 0.986328 0.5
vt 0.994141 0.5

# verts
v -63 0 13
v -63 0 -12
v -63 2 11
v -63 2 10
v -63 2 -10
v -63 2 -11
v -63 3 11
v -63 3 10
v -63 3 -10
v -63 3 -11
v -63 22 11
v -63 22 10
v -63 22 -10
v -63 22 -11
v -63 23 10
v -63 23 9
v -63 23 -9
v -63 23 -10
v -63 24 9
v -63 24 8
v -63 24 -8
v -63 24 -9
v -63 25 8
v -63 25 6
v -63 25 -6
v -63 25 -8
v -63 26 6
v -63 26 -6
v -63 27 13
v -63 27 -12
v 63 0 13
v 63 0 -12
v 63 2 11
v 63 2 10
v 63 2 -10
v 63 2 -11
v 63 3 11
v 63 3 10
v 63 3 -10
v 63 3 -11
v 63 22 11
v 63 22 10
v 63 22 -10
v 63 22 -11
v 63 23 10
v 63 23 9
v 63 23 -9
v 63 23 -10
v 63 24 9
v 63 24 8
v 63 24 -8
v 63 24 -9
v 63 25 8
v 63 25 6
v 63 25 -6
v 63 25 -8
v 63 26 6
v 63 26 -6
v 63 27 13
v 63 27 -12
v -63 0 13
v -63 27 13
v 63 0 13
v 63 27 13
v -63 25 -6
v -63 26 -6
v 63 25 -6
v 63 26 -6
v -63 24 -8
v -63 25 -8
v 63 24 -8
v 63 25 -8
v -63 23 -9
v -63 24 -9
v 63 23 -9
v 63 24 -9
v -63 22 -10
v -63 23 -10
v 63 22 -10
v 63 23 -10
v -63 3 -11
v -63 22 -11
v 63 3 -11
v 63 22 -11
v -63 3 11
v -63 22 11
v 63 3 11
v 63 22 11
v -63 22 10
v -63 23 10
v 63 22 10
v 63 23 10
v -63 23 9
v -63 24 9
v 63 23 9
v 63 24 9
v -63 24 8
v -63 25 8
v 63 24 8
v 63 25 8
v -63 25 6
v -63 26 6
v 63 25 6
v 63 26 6
v -63 0 -12
v -63 27 -12
v 63 0 -12
v 63 27 -12
v -63 0 13
v 63 0 13
v -63 0 -12
v 63 0 -12
v -63 22 11
v 63 22 11
v -63 22 10
v 63 22 10
v -63 22 -10
v 63 22 -10
v -63 22 -11
v 63 22 -11
v -63 23 10
v 63 23 10
v -63 23 9
v 63 23 9
v -63 23 -9
v 63 23 -9
v -63 23 -10
v 63 23 -10
v -63 24 9
v 63 24 9
v -63 24 8
v 63 24 8
v -63 24 -8
v 63 24 -8
v -63 24 -9
v 63 24 -9
v -63 25 8
v 63 25 8
v -63 25 6
v 63 25 6
v -63 25 -6
v 63 25 -6
v -63 25 -8
v 63 25 -8
v -63 26 6
v 63 26 6
v -63 26 -6
v 63 26 -6
v -63 3 11
v 63 3 11
v -63 3 10
v 63 3 10
v -63 3 -10
v 63 3 -10
v -63 3 -11
v 63 3 -11
v -63 27 13
v 63 27 13
v -63 27 -12
v 63 27 -12

# faces
f 3/2/1 2/2/1 1/2/1
f 4/2/1 2/2/1 3/2/1
f 5/2/1 2/2/1 4/2/1
f 6/2/1 2/2/1 5/2/1
f 7/2/1 3/2/1 1/2/1
f 7/1/1 4/1/1 3/1/1
f 8/3/1 5/3/1 4/3/1
f 8/1/1 4/1/1 7/1/1
f 9/1/1 6/1/1 5/1/1
f 9/3/1 5/3/1 8/3/1
f 10/2/1 2/2/1 6/2/1
f 10/1/1 6/1/1 9/1/1
f 11/2/1 7/2/1 1/2/1
f 14/2/1 2/2/1 10/2/1
f 15/2/1 12/2/1 11/2/1
f 18/2/1 14/2/1 13/2/1
f 19/2/1 16/2/1 15/2/1
f 22/2/1 18/2/1 17/2/1
f 23/2/1 20/2/1 19/2/1
f 26/2/1 22/2/1 21/2/1
f 27/2/1 24/2/1 23/2/1
f 28/2/1 26/2/1 25/2/1
f 29/2/1 27/2/1 23/2/1
f 29/2/1 28/2/1 27/2/1
f 29/2/1 11/2/1 1/2/1
f 29/2/1 15/2/1 11/2/1
f 29/2/1 19/2/1 15/2/1
f 29/2/1 23/2/1 19/2/1
f 30/2/1 26/2/1 28/2/1
f 30/2/1 28/2/1 29/2/1
f 30/2/1 2/2/1 14/2/1
f 30/2/1 18/2/1 22/2/1
f 30/2/1 22/2/1 26/2/1
f 30/2/1 14/2/1 18/2/1
f 31/2/2 32/2/2 33/2/2
f 33/2/2 32/2/2 34/2/2
f 34/2/2 32/2/2 35/2/2
f 35/2/2 32/2/2 36/2/2
f 31/2/2 33/2/2 37/2/2
f 33/1/2 34/1/2 37/1/2
f 34/3/2 35/3/2 38/3/2
f 37/1/2 34/1/2 38/1/2
f 35/1/2 36/1/2 39/1/2
f 38/3/2 35/3/2 39/3/2
f 36/2/2 32/2/2 40/2/2
f 39/1/2 36/1/2 40/1/2
f 31/2/2 37/2/2 41/2/2
f 40/2/2 32/2/2 44/2/2
f 41/2/2 42/2/2 45/2/2
f 43/2/2 44/2/2 48/2/2
f 45/2/2 46/2/2 49/2/2
f 47/2/2 48/2/2 52/2/2
f 49/2/2 50/2/2 53/2/2
f 51/2/2 52/2/2 56/2/2
f 53/2/2 54/2/2 57/2/2
f 55/2/2 56/2/2 58/2/2
f 53/2/2 57/2/2 59/2/2
f 57/2/2 58/2/2 59/2/2
f 31/2/2 41/2/2 59/2/2
f 41/2/2 45/2/2 59/2/2
f 45/2/2 49/2/2 59/2/2
f 49/2/2 53/2/2 59/2/2
f 58/2/2 56/2/2 60/2/2
f 59/2/2 58/2/2 60/2/2
f 44/2/2 32/2/2 60/2/2
f 52/2/2 48/2/2 60/2/2
f 56/2/2 52/2/2 60/2/2
f 48/2/2 44/2/2 60/2/2
f 63/2/3 62/2/3 61/2/3
f 64/2/3 62/2/3 63/2/3
f 67/2/3 66/2/3 65/2/3
f 68/2/3 66/2/3 67/2/3
f 71/2/3 70/2/3 69/2/3
f 72/2/3 70/2/3 71/2/3
f 75/2/3 74/2/3 73/2/3
f 76/2/3 74/2/3 75/2/3
f 79/2/3 78/2/3 77/2/3
f 80/2/3 78/2/3 79/2/3
f 83/2/3 82/2/3 81/2/3
f 84/2/3 82/2/3 83/2/3
f 85/2/4 86/2/4 87/2/4
f 87/2/4 86/2/4 88/2/4
f 89/2/4 90/2/4 91/2/4
f 91/2/4 90/2/4 92/2/4
f 93/2/4 94/2/4 95/2/4
f 95/2/4 94/2/4 96/2/4
f 97/2/4 98/2/4 99/2/4
f 99/2/4 98/2/4 100/2/4
f 101/2/4 102/2/4 103/2/4
f 103/2/4 102/2/4 104/2/4
f 105/2/4 106/2/4 107/2/4
f 107/2/4 106/2/4 108/2/4
f 111/2/5 110/2/5 109/2/5
f 112/2/5 110/2/5 111/2/5
f 115/2/5 114/2/5 113/2/5
f 116/2/5 114/2/5 115/2/5
f 119/2/5 118/2/5 117/2/5
f 120/2/5 118/2/5 119/2/5
f 123/2/5 122/2/5 121/2/5
f 124/2/5 122/2/5 123/2/5
f 127/2/5 126/2/5 125/2/5
f 128/2/5 126/2/5 127/2/5
f 131/2/5 130/2/5 129/2/5
f 132/2/5 130/2/5 131/2/5
f 135/2/5 134/2/5 133/2/5
f 136/2/5 134/2/5 135/2/5
f 139/2/5 138/2/5 137/2/5
f 140/2/5 138/2/5 139/2/5
f 143/2/5 142/2/5 141/2/5
f 144/2/5 142/2/5 143/2/5
f 147/2/5 146/2/5 145/2/5
f 148/2/5 146/2/5 147/2/5
f 149/1/6 150/1/6 151/1/6
f 151/1/6 150/1/6 152/1/6
f 151/3/6 152/3/6 153/3/6
f 153/3/6 152/3/6 154/3/6
f 153/1/6 154/1/6 155/1/6
f 155/1/6 154/1/6 156/1/6
f 157/2/6 158/2/6 159/2/6
f 159/2/6 158/2/6 160/2/6
